<?xml version="1.0" encoding="UTF-8"?>
<!DOCTYPE svg PUBLIC "-//W3C//DTD SVG 1.1//EN" "http://www.w3.org/Graphics/SVG/1.1/DTD/svg11.dtd">
<!-- Creator: CorelDRAW -->
<svg xmlns="http://www.w3.org/2000/svg" xml:space="preserve" width="119.916mm" height="119.916mm" version="1.1" style="shape-rendering:geometricPrecision; text-rendering:geometricPrecision; image-rendering:optimizeQuality; fill-rule:evenodd; clip-rule:evenodd"
viewBox="0 0 11991.6 11991.6"
 xmlns:xlink="http://www.w3.org/1999/xlink"
 xmlns:xodm="http://www.corel.com/coreldraw/odm/2003">
 <defs>
  <style type="text/css">
   <![CDATA[
    .str1 {stroke:#FEFEFE;stroke-width:16.93;stroke-miterlimit:22.9256}
    .str0 {stroke:white;stroke-width:16.93;stroke-miterlimit:22.9256}
    .str2 {stroke:white;stroke-width:135.47;stroke-miterlimit:22.9256}
    .fil15 {fill:none;fill-rule:nonzero}
    .fil2 {fill:#003399}
    .fil7 {fill:#13120F}
    .fil4 {fill:#2B2A29}
    .fil12 {fill:#908F90}
    .fil10 {fill:#D31A1C}
    .fil6 {fill:#D51619}
    .fil0 {fill:#DC2626}
    .fil8 {fill:#E2141C}
    .fil9 {fill:#E23B43}
    .fil11 {fill:#E64F52}
    .fil5 {fill:#FDFDFD}
    .fil1 {fill:#FEFEFE}
    .fil3 {fill:#FFC94A}
    .fil13 {fill:white}
    .fil17 {fill:black;fill-rule:nonzero}
    .fil14 {fill:#FEFEFE;fill-rule:nonzero}
    .fil16 {fill:white;fill-rule:nonzero}
   ]]>
  </style>
 </defs>
 <g id="Layer_x0020_1">
  <metadata id="CorelCorpID_0Corel-Layer"/>
  <ellipse class="fil0" cx="-56006.41" cy="-74618.76" rx="26394.29" ry="12637.93"/>
  <circle class="fil0" cx="26144.36" cy="-69357.84" r="7275.86"/>
  <path class="fil1" d="M26590.81 -67073.97c23.31,-101.97 769.69,-1914.8 831.01,-2066.34 292.38,-722.54 516.03,-1415.23 621.02,-2267.76 28.2,138.2 93.55,295.95 128.8,447.34 223.8,961.21 237.42,1629.77 270.32,2617.26 6.17,185.4 42.4,991.94 32.13,1105.35 -332.08,0 -667.35,3.17 -995.67,25.46 -498.12,33.81 -642.87,114.26 -887.61,138.69zm-970.33 -3940.5l141.89 27.06c36.26,-61.43 40.11,-157.01 60.97,-230.23 71.02,-249.37 139.17,-403.06 308.03,-582.67 307.3,-326.89 517.68,-125.02 491.59,389.49 -34.65,683.43 -357.42,1251.94 -631.44,1744.55 -237.02,426.1 -639.19,1065.31 -911.4,1468.7 -304.18,450.78 -635.9,1007.61 -905.6,1488.17 -233.5,416.07 -603.03,1210.16 -697.94,1681.9 -59,293.25 -146.85,776.92 -88.21,1083.21 197.99,1034.26 1984.27,781.63 2358.76,203.28 109.75,-169.48 91.4,-282.18 99.74,-503.59 13.57,-360.41 77.21,-693.83 151.1,-1041.7 33.45,-157.46 89.39,-319.19 122.92,-474.44 691.44,-30.61 1149.96,-35.31 1835.63,4.51 169.04,9.82 435.11,10.28 592.64,39.95 66.54,605.36 195.96,1077.76 503.16,1573.39 534.57,862.48 1541.53,1215.05 2417.75,593.07 116.73,-82.85 183.43,-152.66 275.33,-242.93 119.47,-117.36 318.5,-429.62 392.88,-644.02 96.8,-279.04 157.56,-576.3 150.9,-897.63l-87.88 -73.13c-170.06,191.86 -314.01,441.04 -718.7,398.94 -733.35,-76.29 -801.11,-1979.77 -821.31,-2541.76 -25.99,-723.13 -40.23,-1447.57 -59.52,-2172.07 -18.31,-687.57 -57.69,-1382.7 -222,-2024.98 -140.75,-550.2 -417.24,-1044.7 -890.35,-1342.74 -796.04,-501.46 -1764.26,-528.28 -2633.8,-59.81 -461.4,248.58 -873.57,679.59 -1072.28,1174.43 -94.71,235.85 -187.7,684.35 -162.86,961.05z"/>
  <g id="_1845304353584">
   <path class="fil0" d="M8029.66 4255.73l3172 -1448.32c435.09,-198.66 787.9,-6.94 787.9,428.12l-0.02 4452.87c0.02,435.06 -352.79,948.96 -787.86,1147.61l-3172.02 1448.33c-435.04,198.64 -787.85,6.92 -787.85,-428.14l-0.02 -4452.85c0.02,-435.08 352.83,-948.98 787.89,-1147.63z"/>
   <path class="fil0" d="M6287.98 3976.52l-3113.26 -1453.46c-427.03,-199.37 -498.39,-485.92 -159.38,-639.92l3469.76 -1576.2c338.99,-154.01 960.18,-117.23 1387.19,82.12l3113.28 1453.48c426.98,199.35 498.34,485.9 159.33,639.9l-3469.71 1576.21c-339.04,154 -960.23,117.22 -1387.24,-82.14z"/>
   <path class="fil2" d="M2908.52 2807.43l3172.02 1448.33c433.33,197.85 787.86,788.18 787.86,1311.86l0 556.14 -3448.39 1555.96 -1299.37 -475.99 0 -3803.92c0,-523.67 354.53,-790.25 787.88,-592.38z"/>
   <path class="fil3" d="M4391.08 8415.66l-2886.17 -988.25c0,0 -774.89,-112.31 -1078.09,482.9 -303.21,595.2 -303.21,662.58 -303.21,662.58l3492.58 1167.94c0,0 -202.16,1044.43 123.53,1650.85 325.69,606.43 685.07,415.49 864.74,145.98 179.67,-269.51 583.94,-1291.45 404.27,-2234.79 -179.67,-943.34 -561.49,-516.6 -651.34,-269.54 -89.84,247.07 -168.46,763.65 -168.46,763.65l561.51 157.23c0,0 78.62,909.67 -291.98,1313.94 -370.6,404.27 -516.6,101.06 -561.51,-426.76 -44.92,-527.83 22.48,-1403.76 235.84,-1841.75 213.36,-437.98 258.29,-583.98 258.29,-583.98z"/>
   <path class="fil3" d="M4174.77 7886.58c0,0 1113.28,156.24 1220.7,1621.08 107.42,1464.83 -166.01,1806.64 -166.01,1806.64l1650.38 -722.65 -39.06 -3964.82 -2666.01 1259.75z"/>
   <path class="fil3" d="M4191.97 9978.04l398.14 106.81c0,0 29.16,606.95 -131.08,854.56 -160.25,247.61 -349.6,271.91 -388.44,-116.53 -38.84,-388.44 24.27,-864.26 24.27,-864.26l97.11 19.42z"/>
   <path class="fil0" d="M44.27 9146.78l3264.04 1152.02c0,0 -59.07,361.83 36.93,731.07 96,369.23 310.16,708.92 310.16,708.92 0,0 -2318.8,-635.09 -2673.27,-819.69 -354.46,-184.61 -738.46,-568.61 -900.93,-1166.77 -162.46,-598.16 -36.93,-605.55 -36.93,-605.55z"/>
  </g>
  <path class="fil0" d="M42541.45 -45489.31l13375.68 0c547.11,0 990.79,443.68 990.79,990.79l0 13375.68c0,547.1 -443.68,990.79 -990.79,990.79l-13375.68 0c-547.1,0 -990.79,-443.69 -990.79,-990.79l0 -13375.68c0,-547.11 443.69,-990.79 990.79,-990.79z"/>
  <circle class="fil3" cx="43200.63" cy="-43876.51" r="860.28"/>
  <circle class="fil3" cx="22071.95" cy="-73812.44" r="860.28"/>
  <g id="_1845304344752">
   <path class="fil4" d="M-35163.28 -76161.16c-9.04,-146.28 -11.66,-50.29 75.86,-166.76 45.74,-60.89 48.15,-75.74 112.61,-139.92l-66.79 395.98 -121.68 -89.3zm-32448.25 3922.39l-49.24 1.45c-71.09,405.81 -733.43,1607.75 -950.38,1995.37 -574.82,1027.03 -1449.86,2107.16 -2481.59,1052.95 -894.46,-913.94 -742.77,-2485.08 -510.29,-3642.68 233.76,-1163.98 939.9,-2887 1790.42,-3695.78 92.27,-87.75 130.2,-96.55 212.87,-189.23 349.38,-391.66 1205.46,-963.98 1989.12,-948.76 425.53,8.26 820.5,171.23 1099.95,385.66 184.87,141.84 610.42,562.43 530.64,907.3 -183.48,407.1 -1275.77,-587.76 -2898.13,1869.96 -484.47,733.92 -1473.96,2756.17 -1106.04,3602.59 158.45,9.6 242.06,-37.97 338.76,-135.36 71.4,-71.9 183.98,-179.66 258.2,-265.96l412.35 -596.9c261.28,-428.86 491.45,-843.99 713.96,-1303.53 217.23,-448.61 440.07,-893.23 634.66,-1381.27 329.23,-825.72 123.02,-1086.42 970.82,-1011.84 1468.82,129.21 1034.29,1250.31 855.07,2759.31 -127.55,1073.94 -330.61,2427.7 -585.31,3490.6 -267.97,1118.26 -567.88,2060.06 -1017.03,3014.4 -209.13,444.36 -502.1,895.16 -767.72,1247.67 -827.12,1097.75 -2465.33,2476.62 -3968,1980.53 -592.17,-195.5 -856.17,-492.33 -1156.58,-859.97 -205.42,-251.41 -754.27,-1113.8 -420.36,-1503.47 188.54,-139.01 459.29,303.12 1306.01,299.73 478.52,-1.9 954.71,-170.43 1325.92,-368.86 1454.4,-777.47 2323.09,-2451.89 2814.6,-3965.1 225.09,-692.95 593.77,-2005.44 657.32,-2738.81zm5808.67 -222.75c-498.63,959.97 -1322.47,3749.84 -2750.26,2985.28 -1424.44,-762.77 -1048.02,-3346.46 -656.28,-4625.94 344.56,-1125.37 1056.31,-2454.25 1855.42,-3104.7 174.63,-142.14 352.92,-288.22 588.17,-419.74 1042.71,-582.96 2219.46,-331.96 2693.44,604.98 351.52,694.84 -355.68,195.97 -1144.16,579.16 -1747.69,849.37 -3129.86,4391.79 -2627.92,5086.5 612.92,9.92 1981.08,-3033.49 2289.26,-3811.23 69.65,-175.75 176.52,-613.54 291.85,-715.36 199.45,-176.06 622.66,-124.61 878.47,-58.86 316.04,81.26 491.34,216.42 632.82,413.42 186.44,259.62 95,471.58 29.81,785.64 -269.51,1298.44 -664.25,3135.97 -555.19,4451.2 21.11,254.64 160.4,665.1 114.17,874.59 -283.56,172.28 -719.23,37.33 -984.56,-117.63 -1182.97,-690.92 -524.42,-2596.67 -655.04,-2927.31zm10862.82 -2741.28c366.12,-825.34 420.06,-1119.59 954.97,-2108.55 137.7,-254.57 474.13,-892.79 633.25,-1020.92 346.1,-278.67 953.86,115.63 1157.34,281.75 711.17,580.58 200.78,1427.85 27.09,2637.29 -71.89,500.47 113.97,666.96 -198.91,656.51 -451.73,-15.08 -1118.52,-515.27 -1088.63,-1351.45 -146.54,91.12 -240.23,283.22 -353.23,467.92 -695.59,1136.99 -1297.97,2590.79 -1635.53,3892.34 -107.52,414.61 -200.82,892.83 -243.81,1330.35 -31.44,320.02 143.61,902.01 -824.18,556.48 -1017.74,-363.35 -1115.03,-1120.83 -966.41,-2072.35 273.72,-1752.49 842.32,-3491 1047.43,-5235.9 80.78,-687.18 -118.2,-896.48 671.15,-923.05 517.99,-17.43 924.28,169.89 1120.05,470.57 291.63,447.92 -315.25,2009.89 -404.54,2577.34l103.96 -158.33zm-4733.66 2409.36c-260.54,400.2 -559.94,1401.46 -1230.58,2318.42 -1120.47,1532 -2280.32,312.29 -2503.24,-926.93 -248.3,-1380.38 284.65,-3313.75 935.55,-4513.81 386.39,-712.37 734.67,-1110.91 1211.62,-1571.37 1803.48,-1741.12 3584.77,-269.68 3439.7,462.36 -222.92,138.52 -590.91,-4.21 -999.54,122.34 -1528.57,473.39 -2938.59,3228.44 -3012.09,4634.27 -90.52,1731.26 1593.34,-1478.09 1785.48,-1867.98 226.26,-459.12 446.79,-931.16 640.7,-1416.73 66.33,-166.09 183.31,-622.96 301.09,-705.82 150.65,-105.99 1887.17,-356.56 1516.63,1195.05 -252.54,1057.48 -528.3,2449.57 -581.71,3530.4 -14.96,302.89 -7.39,673.38 21.44,963.36 23.98,241.1 199.16,620.21 50.31,806.38 -281.35,137.32 -735.7,-32.74 -955.97,-177.5 -1020.71,-670.82 -622.26,-2020.67 -619.39,-2852.44zm17834.27 -197.49c-422.42,886.7 -857.19,1943.89 -1418.36,2576.63 -308.14,347.45 -780.84,655.55 -1362.42,358.04 -1871.35,-957.35 -869.23,-5066.03 519.94,-6888.94 494.85,-649.36 1631.99,-1812.16 2863.78,-1538.89 991.37,219.94 1735.76,1420.45 928.89,1340.51 -1272.84,-126.12 -2225.24,1128.75 -2805.5,2154.4 -290.2,512.95 -1170.31,2307.63 -821.29,3037.63 563.12,48.44 1544.41,-2041.06 1716.61,-2385.51 230.31,-460.64 455.38,-913.37 656.05,-1401.34 88.18,-214.42 143.23,-604.09 305.97,-700.76 333.62,-198.19 1186.35,-60.84 1487.01,362.33 197.45,277.91 103.67,490.2 30.44,834.87 -119.53,562.53 -240.18,1095.5 -342.67,1668.71 -147.91,827.23 -314.56,1924.29 -238.05,2765.88 22.9,251.85 151.71,699.79 120.1,874.98 -287.54,188.66 -729.46,57.68 -1003.53,-113.14 -1198.91,-747.22 -526.9,-2543.76 -636.97,-2945.4zm-8638.36 -202.58c272.23,-261.88 1324.05,-3382.57 1534.76,-4159.29 151.57,-558.76 11.32,-737.16 294.57,-783.49 353.1,-57.76 1014.27,107.21 1265.57,437.15 329.57,432.71 102.24,1117.8 29.51,1656.14 -152.82,1131.22 -339.87,2519.69 -314.57,3664.42l265.18 -569.43c495.46,-1096.1 1204.23,-3274.58 1207.46,-4362.37 2.47,-829.7 -586.64,-966.66 52.52,-1072.88 502.37,-83.49 887.65,132.78 1109.74,430.9 416.52,559.16 -90.33,1979.08 -275.39,2583.16 -514.56,1679.52 -1075.38,3120.96 -1774.58,4598.98 -200.19,423.16 -295.38,806.98 -881.55,628.57 -360.63,-109.78 -725.94,-386.43 -896.02,-673.69 -475.97,-803.94 -286.26,-1888.03 -317.84,-2868.15 -87.38,100.77 -941.43,2344.57 -1113.47,2728.71 -221.25,494.07 -340.81,1023.49 -1052.95,686.41 -395.46,-187.18 -718.98,-535.64 -847.9,-1049.7 -271.06,-1080.75 666.27,-4526.64 660.57,-5949.83 -0.81,-204.01 -72.23,-741.29 -51.97,-826.02 363.22,-284.46 1168.59,7.76 1436.01,216.39 362.16,282.54 290.76,997.22 220.04,1517.73 -148.14,1090.28 -365.21,2103.69 -549.69,3166.29zm-25636.07 -1321.96c284.67,21.46 257.27,48.34 472.66,174.19 8.35,287.01 -64.3,555.3 -124.43,821.63 -96.68,428.23 -142.09,396.96 -577.71,386.91 -48.45,1021.97 -558.37,3141.07 -47.54,4313.36 84.39,193.66 219.16,288.26 172.26,544.89 -176.69,355.26 -1540.11,165.63 -2152.61,-379.27 -757.12,-673.55 -224.74,-3254.07 -50.41,-4150.4 -373.61,70.97 -1010.46,286.71 -1418.58,414.57 -228.56,71.6 -300.79,39.23 -387.69,218.02 -249.11,512.51 -488.46,1213.55 -704.06,1756.36 -398.96,1004.48 -1022.34,2641.72 -1130.63,3794.29 -40.08,426.53 25.25,717.14 -531.83,615.49 -493.45,-90.03 -1205.03,-542.39 -1402.54,-1014.39 -521.93,-1247.25 1142.63,-3722.65 1377.75,-4580.39 -351.75,99.05 -782.41,281.81 -997.99,-75.51 -174.76,-289.66 -144.4,-841.62 -90.23,-1192.36 80.63,-521.9 489.5,-1786.8 842.98,-1897.54 147.32,60 156.62,155.55 246.42,274.64 259.11,343.63 819.79,416.2 1246,415.36 124.77,-152.04 400.57,-784.58 520.33,-1019.3 955.24,-1872.46 2155.66,-4324.8 2996.99,-6241.27 118.64,-270.24 324.17,-899.77 458.41,-1113.11 392.9,-624.39 1906.43,98.45 2212.17,404.92 301.21,301.93 515.02,464.54 393.01,1069.76 -85.77,425.48 -196.4,859.33 -294.03,1279.53 -385.93,1660.96 -750.15,3472.55 -1028.7,5179.62zm39009.97 -8551.27c227.45,-175.92 745.07,-7.43 987.42,71.69 327.85,107.04 501.5,234.2 706.58,421.21 478.05,435.9 172.73,1112.2 37.6,1772.25 -255.57,1248.22 -563.93,2466.39 -857.36,3702.02 -287.18,1209.29 -630.32,2407.84 -946.17,3611.33 -212.74,810.61 -537.47,1888.12 -681.48,2705.79 -124.04,704.27 -21.54,666.25 -46.17,1011.18 -27.68,387.72 -531.48,219.17 -776.26,108.06 -916.14,-415.8 -1117.13,-1272.15 -953.91,-2291.99 308.17,-1925.39 2386.6,-9134.98 2434.85,-10636.73 12.24,-380.95 -73.84,-344.32 94.9,-474.81zm-1723.63 6043.11l-63.99 286.2c-34.89,77.12 -22.74,37.89 -50.19,80.08l-122.23 -493.95c-200.9,-443.19 -589.25,-829.26 -896.23,-1113.01 -1361.74,-1258.66 -3150.28,-495.83 -4088.7,632.74l-517.5 -504.05c-68.31,-76.35 -65.59,-99.34 -146.42,-176.65 -555.85,-531.66 -1526.87,-678.94 -1956.6,-274.59 -369.99,348.14 -118.3,640.59 30.82,957.08 -138.58,-92.9 -175.19,-161.02 -286.19,-285.64 -89.21,-100.15 -184.6,-160.08 -308.07,-257.28 -392.17,-308.72 -1291.54,-528.86 -1713.6,-312.72 -285.09,145.98 -312.4,377.63 -332.87,777.23 -288.48,-53.23 -315.15,-508.81 -1111.74,-775.93 -517.43,-173.51 -1135.82,-198.73 -1495.62,115.64 -310.06,-201.08 -799.04,-539.64 -1340.64,-444.49 -458.39,80.54 -832.61,692.82 -914.49,948.27 -247.63,-130.8 -711.72,-761.43 -1797.35,-634.58 -1003.68,117.27 -825.51,650.72 -916.35,1547.56 -183.85,-207.53 -62.92,-223.16 -565.65,-712.36 -178.97,-174.16 -463.62,-483.81 -670.52,-621.12 -616.75,-409.28 -1211.5,-529.44 -2029.27,-321.12 -1588.7,404.67 -2582.93,2345.43 -2705.4,2454.57 -40.54,148.17 -158,505.44 -277.68,599.62l-84.95 -103.79c194.92,-375.8 140.58,-264.88 164.81,-740.09 -93.95,-264.83 -323.69,-645.27 -475.7,-796.94l-628.37 -621.06c-450.13,-367.9 -1179.25,-648.6 -1945.86,-496.47 -1067.46,211.85 -1942.99,1080.32 -2525.3,1915.02 -88.15,126.35 -144.7,258.87 -233.58,359.99l-122.98 210.4 -70.6 -387.9c-100.9,-423.69 -854.82,-1139.2 -1148.32,-1363.7 -954.01,-729.72 -2167.84,-565.03 -3041,28.79 -700.65,491.79 -683.66,542.57 -1177.45,1085.81 -105.92,116.52 -197.71,269.27 -298.45,376.44 -47.52,-456.95 901.56,-3729.29 926.13,-4899.19 -72.14,-348.67 -186.39,-490.05 -421.99,-725.08l-585.89 -584.3c-313.65,-285.55 -1012.56,-645.56 -1582.13,-757.53 -779.83,-153.3 -1245.7,-15.73 -1521.91,686.86 -213.45,542.94 -442.72,1094.5 -691.07,1606.83 -252.74,521.39 -504.29,1080.96 -741.47,1599.83l-2290.35 4649.3c-672.13,120.13 -698.3,-810.13 -1408.27,-643.51 -693.02,162.65 -1212.02,2172.9 -1158.42,3088.04 49.23,840.78 527.56,1164.27 653.67,1450.42 -305.52,563.68 -675.85,1475.14 -861.02,2159.83 -163.9,606 -219.06,1374.26 60.85,1949.45 90.77,186.52 206.23,273.14 278.87,433.74 120.24,75.77 83.53,84.26 181.98,197.77 423.64,488.44 1097.95,924.83 1778.68,1001.31 1148.28,129 916.07,-944.19 1170.58,-1968.49 298.08,-1199.65 950.67,-2885 1438.81,-4085.29 127.36,-313.17 39.1,-353.03 393.32,-415.33 -128.24,989.18 -253.55,2406.53 459.95,3209.89 226.72,255.26 381.66,476.67 649.48,681.51 726.38,555.6 2689.24,828.76 2742.02,-224.3 24.88,-496.52 -220.01,-625.24 -272.14,-1055.83 8.42,7.27 20.46,7.91 24.36,22.8l328.77 370.52c439.01,446.6 820.6,723.61 1565.38,692.92 -121.52,321.74 -532.45,786.83 -721.97,1000.33 -86.39,97.32 -115.19,111.19 -213.45,190.21 -563.04,452.7 -1157.42,960.05 -2100.89,872.78 -714.78,-66.11 -867.54,-521.48 -1287.18,-269.65 -719.79,431.95 36.1,2075.6 363.41,2490.14 531.33,672.9 1046.44,1280.95 1971.37,1460.88 1562.49,303.95 3345.4,-950.1 4204.13,-2129.33 69.29,-95.14 121.83,-172.57 186.02,-258.47 845.84,-1131.89 1750.54,-3566.46 1883.99,-4965.58 146.73,102.78 1327.21,1854.59 2749.76,605.21 302.48,-265.64 439.09,-586.84 614.9,-780.48 244.71,200.25 611.53,1011.04 1583.9,1182.44 1565.89,276.04 1063.53,-1199.8 1101.97,-1448.8 11.64,-75.35 3.48,-40.42 27.98,-83.77 72.28,168.08 480.16,604.34 656.72,753.48 552.6,466.82 1531.04,552.33 2097.91,-34.54 541.24,-560.36 402.94,-539.13 638.41,-809.9 454.94,506.08 1136.64,1455.76 2234.7,1222.36 482.79,-102.62 391.72,-341.88 572.6,-633.48 641.46,642.47 2164.62,1171.08 2288.22,-204.05 37.37,-415.8 76.68,-730.51 167.25,-1139.51 155.88,-704.04 339.25,-1314.04 585.5,-1951.15l783.93 -1804.59 193.54 151.81c293.4,293.51 147.29,152.4 457.68,347.92l108.36 78.73c-283.69,1586.05 -466.49,2895.18 519.89,3930.13 241.64,253.54 262.1,374.24 626.33,584.55 1391.8,803.63 1704.99,-408.15 2052.63,-1160.23 132.97,107.67 228,326.89 343.01,458.06 390.06,444.83 760.93,918.33 1491.42,1011.27 1126.98,143.39 1142.85,-1161.9 1595.57,-1671.57 119.19,141.34 187.12,509.43 664.91,1022.71 271.21,291.36 437.16,563.6 1002.39,732.74 1347.93,403.36 1903.18,-900.1 2164.58,-1108.3 190.76,171.7 476.45,793.53 1151.87,1099.25 1233.21,558.2 1484.78,-188.78 1652.53,-274.55 225.37,353.89 931.5,813.13 1582.57,760.13 800,-65.11 563.64,-1025.67 695.42,-1713.78 243.98,-1274.07 694.31,-2579.24 1009.62,-3828.27 324.19,-1284.24 689.34,-2561.16 972.38,-3870.41 142.77,-660.39 291.87,-1313.46 444.13,-1976.87 209.5,-912.74 308.97,-1194.37 268.79,-2078.88 -177.65,-385.67 -471.03,-585.76 -731.33,-857.41 -529.05,-552.1 -1682.32,-996.82 -2372.68,-706.29 -448.75,188.86 -289.21,685.42 -370.59,1211.73 -274.19,1773.13 -802.54,3491.04 -1166.16,5212.83z"/>
   <path class="fil5" d="M-75342.6 -74245.64c303.51,-797.36 729.47,-1682.5 1088.74,-2486.22 160.9,-359.98 977.49,-2263.66 1117.18,-2430.77l-1020.23 4758.91 -1185.69 158.08zm3228.74 -269.83c278.55,-1707.07 642.77,-3518.66 1028.7,-5179.62 97.63,-420.2 208.26,-854.05 294.03,-1279.53 122.01,-605.22 -91.8,-767.83 -393.01,-1069.76 -305.74,-306.47 -1819.27,-1029.31 -2212.17,-404.92 -134.24,213.34 -339.77,842.87 -458.41,1113.11 -841.33,1916.47 -2041.75,4368.81 -2996.99,6241.27 -119.76,234.72 -395.56,867.26 -520.33,1019.3 -426.21,0.84 -986.89,-71.73 -1246,-415.36 -89.8,-119.09 -99.1,-214.64 -246.42,-274.64 -353.48,110.74 -762.35,1375.64 -842.98,1897.54 -54.17,350.74 -84.53,902.7 90.23,1192.36 215.58,357.32 646.24,174.56 997.99,75.51 -235.12,857.74 -1899.68,3333.14 -1377.75,4580.39 197.51,472 909.09,924.36 1402.54,1014.39 557.08,101.65 491.75,-188.96 531.83,-615.49 108.29,-1152.57 731.67,-2789.81 1130.63,-3794.29 215.6,-542.81 454.95,-1243.85 704.06,-1756.36 86.9,-178.79 159.13,-146.42 387.69,-218.02 408.12,-127.86 1044.97,-343.6 1418.58,-414.57 -174.33,896.33 -706.71,3476.85 50.41,4150.4 612.5,544.9 1975.92,734.53 2152.61,379.27 46.9,-256.63 -87.87,-351.23 -172.26,-544.89 -510.83,-1172.29 -0.91,-3291.39 47.54,-4313.36 435.62,10.05 481.03,41.32 577.71,-386.91 60.13,-266.33 132.78,-534.62 124.43,-821.63 -215.39,-125.85 -187.99,-152.73 -472.66,-174.19z"/>
   <path class="fil5" d="M-67660.77 -72237.32l49.97 -74.47c12.37,22.49 92.2,-65.53 -0.73,73.02 -63.55,733.37 -432.23,2045.86 -657.32,2738.81 -491.51,1513.21 -1360.2,3187.63 -2814.6,3965.1 -371.21,198.43 -847.4,366.96 -1325.92,368.86 -846.72,3.39 -1117.47,-438.74 -1306.01,-299.73 -333.91,389.67 214.94,1252.06 420.36,1503.47 300.41,367.64 564.41,664.47 1156.58,859.97 1502.67,496.09 3140.88,-882.78 3968,-1980.53 265.62,-352.51 558.59,-803.31 767.72,-1247.67 449.15,-954.34 749.06,-1896.14 1017.03,-3014.4 254.7,-1062.9 457.76,-2416.66 585.31,-3490.6 179.22,-1509 613.75,-2630.1 -855.07,-2759.31 -847.8,-74.58 -641.59,186.12 -970.82,1011.84 -194.59,488.04 -417.43,932.66 -634.66,1381.27 -222.51,459.54 -452.68,874.67 -713.96,1303.53l-412.35 596.9c-74.22,86.3 -186.8,194.06 -258.2,265.96 -96.7,97.39 -180.31,144.96 -338.76,135.36 -367.92,-846.42 621.57,-2868.67 1106.04,-3602.59 1622.36,-2457.72 2714.65,-1462.86 2898.13,-1869.96 79.78,-344.87 -345.77,-765.46 -530.64,-907.3 -279.45,-214.43 -674.42,-377.4 -1099.95,-385.66 -783.66,-15.22 -1639.74,557.1 -1989.12,948.76 -82.67,92.68 -120.6,101.48 -212.87,189.23 -850.52,808.78 -1556.66,2531.8 -1790.42,3695.78 -232.48,1157.6 -384.17,2728.74 510.29,3642.68 1031.73,1054.21 1906.77,-25.92 2481.59,-1052.95 216.95,-387.62 879.29,-1589.56 950.38,-1995.37z"/>
   <path class="fil5 str0" d="M-43667.95 -72378.58c-25.3,-1144.73 161.75,-2533.2 314.57,-3664.42 72.73,-538.34 300.06,-1223.43 -29.51,-1656.14 -251.3,-329.94 -912.47,-494.91 -1265.57,-437.15 -283.25,46.33 -143,224.73 -294.57,783.49 -210.71,776.72 -1262.53,3897.41 -1534.76,4159.29 184.48,-1062.6 401.55,-2076.01 549.69,-3166.29 70.72,-520.51 142.12,-1235.19 -220.04,-1517.73 -267.42,-208.63 -1072.79,-500.85 -1436.01,-216.39 -20.26,84.73 51.16,622.01 51.97,826.02 5.7,1423.19 -931.63,4869.08 -660.57,5949.83 128.92,514.06 452.44,862.52 847.9,1049.7 712.14,337.08 831.7,-192.34 1052.95,-686.41 172.04,-384.14 1026.09,-2627.94 1113.47,-2728.71 31.58,980.12 -158.13,2064.21 317.84,2868.15 170.08,287.26 535.39,563.91 896.02,673.69 586.17,178.41 681.36,-205.41 881.55,-628.57 699.2,-1478.02 1260.02,-2919.46 1774.58,-4598.98 185.06,-604.08 691.91,-2024 275.39,-2583.16 -222.09,-298.12 -607.37,-514.39 -1109.74,-430.9 -639.16,106.22 -50.05,243.18 -52.52,1072.88 -3.23,1087.79 -712,3266.27 -1207.46,4362.37l-265.18 569.43z"/>
   <path class="fil5" d="M-37839.43 -72990.93c110.07,401.64 -561.94,2198.18 636.97,2945.4 274.07,170.82 715.99,301.8 1003.53,113.14 31.61,-175.19 -97.2,-623.13 -120.1,-874.98 -76.51,-841.59 90.14,-1938.65 238.05,-2765.88 102.49,-573.21 223.14,-1106.18 342.67,-1668.71 73.23,-344.67 167.01,-556.96 -30.44,-834.87 -300.66,-423.17 -1153.39,-560.52 -1487.01,-362.33 -162.74,96.67 -217.79,486.34 -305.97,700.76 -200.67,487.97 -425.74,940.7 -656.05,1401.34 -172.2,344.45 -1153.49,2433.95 -1716.61,2385.51 -349.02,-730 531.09,-2524.68 821.29,-3037.63 580.26,-1025.65 1532.66,-2280.52 2805.5,-2154.4 806.87,79.94 62.48,-1120.57 -928.89,-1340.51 -1231.79,-273.27 -2368.93,889.53 -2863.78,1538.89 -1389.17,1822.91 -2391.29,5931.59 -519.94,6888.94 581.58,297.51 1054.28,-10.59 1362.42,-358.04 561.17,-632.74 995.94,-1689.93 1418.36,-2576.63z"/>
   <path class="fil5" d="M-61802.86 -72461.52c130.62,330.64 -527.93,2236.39 655.04,2927.31 265.33,154.96 701,289.91 984.56,117.63 46.23,-209.49 -93.06,-619.95 -114.17,-874.59 -109.06,-1315.23 285.68,-3152.76 555.19,-4451.2 65.19,-314.06 156.63,-526.02 -29.81,-785.64 -141.48,-197 -316.78,-332.16 -632.82,-413.42 -255.81,-65.75 -679.02,-117.2 -878.47,58.86 -115.33,101.82 -222.2,539.61 -291.85,715.36 -308.18,777.74 -1676.34,3821.15 -2289.26,3811.23 -501.94,-694.71 880.23,-4237.13 2627.92,-5086.5 788.48,-383.19 1495.68,115.68 1144.16,-579.16 -473.98,-936.94 -1650.73,-1187.94 -2693.44,-604.98 -235.25,131.52 -413.54,277.6 -588.17,419.74 -799.11,650.45 -1510.86,1979.33 -1855.42,3104.7 -391.74,1279.48 -768.16,3863.17 656.28,4625.94 1427.79,764.56 2251.63,-2025.31 2750.26,-2985.28z"/>
   <path class="fil5" d="M-55673.7 -72793.44c-2.87,831.77 -401.32,2181.62 619.39,2852.44 220.27,144.76 674.62,314.82 955.97,177.5 148.85,-186.17 -26.33,-565.28 -50.31,-806.38 -28.83,-289.98 -36.4,-660.47 -21.44,-963.36 53.41,-1080.83 329.17,-2472.92 581.71,-3530.4 370.54,-1551.61 -1365.98,-1301.04 -1516.63,-1195.05 -117.78,82.86 -234.76,539.73 -301.09,705.82 -193.91,485.57 -414.44,957.61 -640.7,1416.73 -192.14,389.89 -1876,3599.24 -1785.48,1867.98 73.5,-1405.83 1483.52,-4160.88 3012.09,-4634.27 408.63,-126.55 776.62,16.18 999.54,-122.34 145.07,-732.04 -1636.22,-2203.48 -3439.7,-462.36 -476.95,460.46 -825.23,859 -1211.62,1571.37 -650.9,1200.06 -1183.85,3133.43 -935.55,4513.81 222.92,1239.22 1382.77,2458.93 2503.24,926.93 670.64,-916.96 970.04,-1918.22 1230.58,-2318.42z"/>
   <path class="fil5" d="M-33103.89 -83066.74c-168.74,130.49 -82.66,93.86 -94.9,474.81 -48.25,1501.75 -2126.68,8711.34 -2434.85,10636.73 -163.22,1019.84 37.77,1876.19 953.91,2291.99 244.78,111.11 748.58,279.66 776.26,-108.06 24.63,-344.93 -77.87,-306.91 46.17,-1011.18 144.01,-817.67 468.74,-1895.18 681.48,-2705.79 315.85,-1203.49 658.99,-2402.04 946.17,-3611.33 293.43,-1235.63 601.79,-2453.8 857.36,-3702.02 135.13,-660.05 440.45,-1336.35 -37.6,-1772.25 -205.08,-187.01 -378.73,-314.17 -706.58,-421.21 -242.35,-79.12 -759.97,-247.61 -987.42,-71.69z"/>
   <path class="fil5" d="M-51044 -75044.47c89.29,-567.45 696.17,-2129.42 404.54,-2577.34 -195.77,-300.68 -602.06,-488 -1120.05,-470.57 -789.35,26.57 -590.37,235.87 -671.15,923.05 -205.11,1744.9 -773.71,3483.41 -1047.43,5235.9 -148.62,951.52 -51.33,1709 966.41,2072.35 967.79,345.53 792.74,-236.46 824.18,-556.48 42.99,-437.52 136.29,-915.74 243.81,-1330.35 337.56,-1301.55 939.94,-2755.35 1635.53,-3892.34 113,-184.7 206.69,-376.8 353.23,-467.92 -29.89,836.18 636.9,1336.37 1088.63,1351.45 312.88,10.45 127.02,-156.04 198.91,-656.51 173.69,-1209.44 684.08,-2056.71 -27.09,-2637.29 -203.48,-166.12 -811.24,-560.42 -1157.34,-281.75 -159.12,128.13 -495.55,766.35 -633.25,1020.92 -534.91,988.96 -588.85,1283.21 -954.97,2108.55l-103.96 158.33z"/>
   <path class="fil6" d="M-69215.85 -77547.88c8.14,-922.13 376.35,-2289.81 -392.22,-3287.6 -18.25,-23.68 -33.19,-44.5 -56.31,-67.69 -94.15,-94.44 -10.01,-27.4 -101.24,-81.65 -24.57,1169.9 -973.65,4442.24 -926.13,4899.19 100.74,-107.17 192.53,-259.92 298.45,-376.44 493.79,-543.24 476.8,-594.02 1177.45,-1085.81z"/>
   <path class="fil7" d="M-75342.6 -74245.64l1185.69 -158.08 1020.23 -4758.91c-139.69,167.11 -956.28,2070.79 -1117.18,2430.77 -359.27,803.72 -785.23,1688.86 -1088.74,2486.22z"/>
   <path class="fil8" d="M-58826.32 -76151.75l-197.82 -244.26c-24.23,475.21 30.11,364.29 -164.81,740.09l84.95 103.79c119.68,-94.18 237.14,-451.45 277.68,-599.62z"/>
   <path class="fil9" d="M-34827.52 -77023.63c-89.22,-17.06 -42.03,-2.92 -107.64,-44.96 -68.2,-43.7 -26.3,-35.35 -128.77,-82.71l122.23 493.95c27.45,-42.19 15.3,-2.96 50.19,-80.08l63.99 -286.2z"/>
   <path class="fil10" d="M-35163.28 -76161.16l121.68 89.3 66.79 -395.98c-64.46,64.18 -66.87,79.03 -112.61,139.92 -87.52,116.47 -84.9,20.48 -75.86,166.76z"/>
   <path class="fil11" d="M-64832.95 -76035.47c-92.91,-62.87 -121.11,-71.2 -193.58,-177.5l70.6 387.9 122.98 -210.4z"/>
   <path class="fil12" d="M-67660.77 -72237.32l49.24 -1.45c92.93,-138.55 13.1,-50.53 0.73,-73.02l-49.97 74.47z"/>
  </g>
  <path class="fil13" d="M45200.2 -30181.27c0,0 356.92,-1138.63 3291.32,-1896.69 2934.4,-758.06 7433.82,-513.53 7433.82,-513.53l-5671.91 -12120.24c0,0 -179.73,-317.16 -581.46,-317.16 -401.73,0 -592.02,274.87 -592.02,274.87l-3778.1 8047.71c0,0 -99.37,218.59 -19.88,405.39 79.49,186.8 417.32,230.52 417.32,230.52l2265.41 23.85 1303.6 -2813.88c0,0 119.24,-262.31 409.37,-262.31 290.13,0 381.54,234.49 381.54,234.49l1720.92 3747.86c0,0 -6672.86,632.27 -8289.17,2736.15 -1616.31,2103.88 -697.77,2220.17 -697.77,2220.17l2407.01 2.8z"/>
  <rect class="fil0" x="-113566.6" y="-27829.03" width="58408.93" height="25584.6"/>
  <rect class="fil1 str1" x="-112294.23" y="-26227.4" width="55864.2" height="22381.34"/>
  <rect class="fil0 str1" x="-111396.1" y="-25378.94" width="54067.93" height="20582.35"/>
  <path class="fil3 str0" d="M50791.2 696.44c0,0 -351.18,-960.71 -339.77,-1463.15 11.41,-502.43 -7.86,-2204.35 -401.01,-3330.94 -393.15,-1126.58 -1287.49,-3024.87 -1579.79,-3982.41 -292.3,-957.54 -319.17,-1026.29 -319.17,-1026.29 0,0 1538.91,-171.72 2858.79,-550.79 1319.87,-379.07 2765.82,-890.2 2765.82,-890.2 0,0 576.14,2416.9 1468.75,4129.61 892.61,1712.71 2562.86,3994.13 2562.86,3994.13 0,0 -1695.4,332.31 -2677.8,948.82 -982.4,616.5 -3049.92,1793.85 -3560.25,1987.7 -510.33,193.85 -778.43,183.52 -778.43,183.52z"/>
  <g id="_2565044866672">
   <path class="fil2" d="M50938.72 484.93c0,0 -162.65,-1009.87 -56.19,-1501.03 106.47,-491.16 410.24,-2165.86 237.82,-3346.55 -172.42,-1180.7 -690.61,-3214.12 -796.06,-4209.71 -105.45,-995.59 -118.79,-1068.19 -118.79,-1068.19 0,0 1543.55,123.18 2911.36,1.24 1367.81,-121.95 2884.44,-349.65 2884.44,-349.65 0,0 107.44,2482.3 659.12,4333.18 551.68,1850.89 1759.07,4407.6 1759.07,4407.6 0,0 -1727.65,4.84 -2809.12,423.9 -1081.47,419.05 -3334.71,1183.04 -3872.54,1276.61 -537.83,93.57 -799.11,32.6 -799.11,32.6z"/>
   <path id="_1" class="fil13" d="M50772.04 510.73c-0.47,-2.99 -167.82,-1041.44 -54.87,-1562.55 64.93,-299.56 204.18,-1044.79 261.05,-1845.03 34.95,-491.91 38.79,-1003.65 -25.22,-1441.99 -78.97,-540.76 -231.32,-1263.23 -382.79,-1981.62 -178.65,-847.25 -356.13,-1688.96 -413.93,-2234.7 -104.67,-988.3 -117.43,-1057.39 -117.46,-1057.61l-35.55 -213.26 214.8 16.81c4.43,0.34 1533.24,122.34 2884.24,1.9 1352.65,-120.59 2869.46,-348.33 2873.86,-348.99l185.16 -27.83 8.64 187.9c0.32,7.11 106.5,2460.35 652.5,4292.17 548.27,1839.45 1746.36,4376.45 1749.81,4383.79l112.63 239.18 -264.76 1.59c-4.88,0.02 -1696.41,4.81 -2748.93,412.65 -586.62,227.3 -1505.26,552.05 -2310.78,817.6 -706.64,232.94 -1334.84,423.15 -1594.17,468.27 -569.55,99.08 -863.08,30.8 -863.93,30.62l-112.27 -24.78 -18.03 -114.12zm166.68 -25.8c0,0 -162.65,-1009.87 -56.19,-1501.03 106.47,-491.16 410.24,-2165.86 237.82,-3346.55 -172.42,-1180.7 -690.61,-3214.12 -796.06,-4209.71 -105.45,-995.59 -118.79,-1068.19 -118.79,-1068.19 0,0 1543.55,123.18 2911.36,1.24 1367.81,-121.95 2884.44,-349.65 2884.44,-349.65 0,0 107.44,2482.3 659.12,4333.18 551.68,1850.89 1759.07,4407.6 1759.07,4407.6 0,0 -1727.65,4.84 -2809.12,423.9 -1081.47,419.05 -3334.71,1183.04 -3872.54,1276.61 -537.74,93.55 -799.02,32.62 -799.11,32.6z"/>
  </g>
  <g id="_2565044868352">
   <path class="fil0" d="M51134.45 315.47c0,0 44.34,-1021.93 247.66,-1481.52 203.32,-459.6 838.56,-2038.64 907.78,-3229.85 69.22,-1191.21 -28.28,-3287.35 69.2,-4283.75 97.49,-996.41 99.06,-1070.21 99.06,-1070.21 0,0 1487,431.92 2851.3,588.31 1364.3,156.38 2895.69,239.2 2895.69,239.2 0,0 -395.33,2452.96 -228.22,4377.07 167.1,1924.11 834.11,4671.78 834.11,4671.78 0,0 -1693.13,-343.65 -2836.89,-151.28 -1143.76,192.36 -3504.77,486.27 -4050.42,469.46 -545.65,-16.8 -789.27,-129.21 -789.27,-129.21z"/>
   <path id="_1_0" class="fil1" d="M50965.78 308.19c0.13,-3.03 45.74,-1054.54 261.55,-1542.37 124.06,-280.43 410.82,-982.48 627.85,-1754.67 133.45,-474.82 240.41,-975.01 266.04,-1416.31 31.87,-548.62 28.36,-1285.89 24.87,-2019 -4.13,-866.51 -8.23,-1727.3 44.99,-2271.36 96.99,-991.38 98.4,-1060.74 98.4,-1060.95l8.97 -215.37 206 59.26c4.26,1.22 1474.65,428.33 2824.18,583.02 1362.85,156.21 2880.71,238.31 2885.11,238.54l187.51 10.16 -29.43 184.97c-1.11,7.03 -391.72,2430.6 -226.23,4336.06 166.28,1914.67 827.58,4638.75 829.48,4646.64l62.31 257.71 -259.42 -52c-4.8,-0.96 -1663.91,-337.67 -2776.04,-150.62 -616.53,103.68 -1581.89,236.4 -2428.32,334.5 -738.03,85.54 -1391.07,145.07 -1654.51,136.95 -579.31,-17.83 -851.97,-143.41 -852.77,-143.76l-105.59 -46.92 5.05 -114.48zm168.67 7.28c0,0 44.34,-1021.93 247.66,-1481.52 203.32,-459.6 838.56,-2038.64 907.78,-3229.85 69.22,-1191.21 -28.28,-3287.35 69.2,-4283.75 97.49,-996.41 99.06,-1070.21 99.06,-1070.21 0,0 1487,431.92 2851.3,588.31 1364.3,156.38 2895.69,239.2 2895.69,239.2 0,0 -395.33,2452.96 -228.22,4377.07 167.1,1924.11 834.11,4671.78 834.11,4671.78 0,0 -1693.13,-343.65 -2836.89,-151.28 -1143.76,192.36 -3504.77,486.27 -4050.42,469.46 -545.52,-16.8 -789.15,-129.16 -789.27,-129.21z"/>
  </g>
  <path class="fil1" d="M53339.29 -2449.53c0,0 188.97,-377.6 1229.76,-476.02 1040.8,-98.42 2560.07,229.89 2560.07,229.89l-1271.96 -4437.25c0,0 -43.94,-117.82 -180.78,-139.7 -136.84,-21.87 -216.62,61.39 -216.62,61.39l-1725.13 2535.47c0,0 -45.75,69.05 -28.85,137 16.9,67.96 129.59,101.25 129.59,101.25l770.35 131.48 597.26 -887.47c0,0 54.9,-82.86 153.72,-67.06 98.83,15.8 117.19,100.65 117.19,100.65l382.09 1370.31c0,0 -2307.33,-148.01 -2972.45,480.6 -665.11,628.6 -358.57,718.23 -358.57,718.23l814.33 141.23z"/>
  <path class="fil14" d="M48116.6 -8729.84c2.59,-0.2 903.21,-71.49 1341.83,-136.48 437.39,-64.81 697.76,-125.97 698.51,-126.14l30.73 131.61c-0.75,0.18 -266.75,62.64 -709.23,128.2 -441.22,65.39 -1348.17,137.17 -1350.79,137.38l-11.05 -134.57z"/>
  <path class="fil14" d="M50197.51 -8981.47c2.6,0.09 905.48,31.73 1348.65,17.07 441.92,-14.63 707.56,-45.76 708.33,-45.84l15.56 134.24c-0.78,0.1 -272.15,31.89 -719.22,46.69 -445.8,14.75 -1355.03,-17.12 -1357.65,-17.21l4.33 -134.95z"/>
  <path class="fil15 str2" d="M58367.7 -8184.96c0,0 -2993.22,-213.88 -4072.89,-477.18 -1079.67,-263.3 -1957,-376.42 -1957,-376.42"/>
  <path class="fil16" d="M-101213.65 -12348.26l-1195.03 0 -473.16 -1247.32 -2197.48 0 -455.3 1247.32 -1173.35 0 2127.33 -5479.01 1172.07 0 2194.92 5479.01zm-2027.85 -2173.24l-761.4 -2027.85 -739.72 2027.85 1501.12 0z"/>
  <path id="_1_1" class="fil16" d="M-98074.96 -14360.8l0 -925.92 2379.85 0 0 2185.99c-230.84,225.74 -566.26,423.42 -1006.27,595.6 -438.73,170.9 -883.83,256.35 -1335.32,256.35 -572.64,0 -1071.31,-119.89 -1497.29,-360.93 -424.7,-241.05 -744.81,-586.67 -959.08,-1034.33 -214.26,-447.66 -321.39,-936.13 -321.39,-1462.86 0,-571.36 119.88,-1078.96 358.38,-1524.07 239.77,-443.83 589.22,-785.63 1049.63,-1022.85 352.01,-182.38 788.18,-272.93 1311.09,-272.93 679.77,0 1211.6,142.84 1594.22,428.53 381.33,286.95 627.48,681.05 737.16,1186.09l-1101.92 206.62c-76.52,-269.11 -221.92,-482.1 -434.9,-638.97 -211.72,-155.59 -476.99,-233.39 -795.84,-233.39 -482.09,0 -865.98,153.04 -1150.39,460.41 -284.4,307.36 -427.25,762.67 -427.25,1365.93 0,651.71 144.12,1140.18 432.36,1465.4 289.51,325.22 667.02,488.47 1135.08,488.47 230.84,0 462.96,-45.91 695.08,-136.46 233.39,-90.56 432.35,-201.51 599.42,-331.6l0 -695.08 -1262.62 0z"/>
  <path id="_2" class="fil16" d="M-89735.27 -12348.26l-1195.03 0 -473.16 -1247.32 -2197.48 0 -455.3 1247.32 -1173.35 0 2127.33 -5479.01 1172.07 0 2194.92 5479.01zm-2027.85 -2173.24l-761.4 -2027.85 -739.72 2027.85 1501.12 0z"/>
  <path id="_3" class="fil16" d="M-84209.07 -12348.26l-1195.03 0 -473.16 -1247.32 -2197.48 0 -455.3 1247.32 -1173.35 0 2127.33 -5479.01 1172.07 0 2194.92 5479.01zm-2027.85 -2173.24l-761.4 -2027.85 -739.72 2027.85 1501.12 0z"/>
  <path id="_4" class="fil16" d="M-83618.58 -12348.26l0 -5479.01 2330.11 0c585.4,0 1011.38,49.74 1276.65,147.94 266.56,98.21 478.27,272.93 637.69,524.18 159.42,252.53 239.77,539.49 239.77,863.43 0,411.95 -119.88,751.2 -360.93,1019.03 -241.04,267.82 -600.7,436.17 -1080.24,506.32 238.49,139.01 434.9,292.06 589.22,459.13 155.6,167.08 364.76,464.24 627.49,890.22l668.29 1068.76 -1322.56 0 -793.28 -1196.3c-284.41,-424.7 -479.54,-692.53 -585.4,-803.49 -104.58,-109.68 -215.54,-186.2 -332.87,-227.01 -118.61,-40.82 -304.82,-61.22 -559.89,-61.22l-224.47 0 0 2288.02 -1109.58 0zm1109.58 -3160.38l818.79 0c530.56,0 860.88,-22.96 993.52,-67.59 131.36,-44.64 235.94,-122.44 309.91,-232.12 75.25,-109.68 112.24,-247.43 112.24,-411.95 0,-184.93 -49.74,-332.87 -147.95,-447.66 -98.2,-113.5 -237.22,-184.92 -415.77,-214.26 -90.55,-12.75 -359.65,-19.13 -807.31,-19.13l-863.43 0 0 1392.71z"/>
  <polygon id="_5" class="fil16" points="-77477.64,-12348.26 -78765.77,-17827.27 -77625.59,-17827.27 -76810.62,-14063.64 -75810.73,-17827.27 -74491.99,-17827.27 -73535.46,-13999.87 -72701.36,-17827.27 -71587.96,-17827.27 -72907.98,-12348.26 -74092.8,-12348.26 -75173.04,-16444.76 -76260.94,-12348.26 "/>
  <path id="_6" class="fil16" d="M-66494.11 -12348.26l-1195.03 0 -473.16 -1247.32 -2197.48 0 -455.3 1247.32 -1173.35 0 2127.33 -5479.01 1172.07 0 2194.92 5479.01zm-2027.85 -2173.24l-761.4 -2027.85 -739.72 2027.85 1501.12 0z"/>
  <polygon id="_7" class="fil16" points="-65873.01,-12348.26 -65873.01,-17781.36 -64763.43,-17781.36 -64763.43,-13274.18 -62016.27,-13274.18 -62016.27,-12348.26 "/>
  <polygon class="fil16" points="-106642.73,-7658.27 -106642.73,-10542.19 -104661.04,-10542.19 -104661.04,-10054.82 -106058.7,-10054.82 -106058.7,-9370.09 -104850.35,-9370.09 -104850.35,-8882.73 -106058.7,-8882.73 -106058.7,-7658.27 "/>
  <polygon id="_1_2" class="fil16" points="-104166.29,-7658.27 -104166.29,-10518.02 -103582.25,-10518.02 -103582.25,-8145.64 -102136.27,-8145.64 -102136.27,-7658.27 "/>
  <polygon id="_2_3" class="fil16" points="-101722.07,-7658.27 -101722.07,-10542.19 -99587.32,-10542.19 -99587.32,-10054.82 -101138.04,-10054.82 -101138.04,-9414.4 -99696.08,-9414.4 -99696.08,-8927.03 -101138.04,-8927.03 -101138.04,-8145.64 -99530.94,-8145.64 -99530.94,-7658.27 "/>
  <polygon id="_3_4" class="fil16" points="-99327.53,-7658.27 -98331.98,-9161.99 -99234.89,-10542.19 -98554.86,-10542.19 -97986.93,-9683.59 -97419.01,-10542.19 -96737.64,-10542.19 -97641.88,-9161.32 -96649.03,-7658.27 -97348.52,-7658.27 -97987.6,-8635.02 -98626.69,-7658.27 "/>
  <polygon id="_4_5" class="fil16" points="-96369.09,-7658.27 -96369.09,-10542.19 -95785.05,-10542.19 -95785.05,-7658.27 "/>
  <path id="_5_6" class="fil16" d="M-95229.89 -10542.19l1153.3 0c228.91,0 398.75,9.4 510.86,28.2 112.78,19.46 212.8,59.07 301.42,118.82 88.61,60.41 162.45,140.3 221.53,240.32 59.07,100.03 88.61,212.81 88.61,337 0,134.26 -36.25,258.45 -108.75,370.56 -72.5,112.78 -171.18,196.69 -295.38,253.08 175.21,51.69 309.48,138.96 404.13,262.48 93.98,123.52 140.97,268.52 140.97,435.67 0,131.58 -30.21,259.13 -91.29,383.32 -61.09,124.19 -144.33,223.54 -250.4,298.06 -105.4,73.84 -235.63,119.49 -390.7,136.94 -96.67,10.07 -330.95,16.78 -702.18,19.47l-982.12 0 0 -2883.92zm584.03 479.31l0 664.59 381.31 0c226.22,0 367.2,-3.35 422.24,-10.07 99.36,-11.41 177.9,-45.65 234.96,-102.71 57.06,-57.06 85.26,-131.57 85.26,-224.21 0,-89.29 -24.84,-161.12 -73.85,-216.83 -49,-55.72 -122.17,-89.29 -218.84,-100.7 -57.73,-6.71 -223.55,-10.07 -496.77,-10.07l-334.31 0zm0 1143.9l0 773.34 539.73 0c209.45,0 343.04,-6.04 399.43,-17.45 86.6,-16.11 157.08,-54.38 211.46,-115.46 54.37,-61.76 81.9,-142.99 81.9,-245.7 0,-87.27 -20.81,-160.44 -63.1,-220.86 -41.63,-60.42 -102.71,-104.72 -181.93,-132.25 -79.21,-27.52 -251.74,-41.62 -516.9,-41.62l-470.59 0z"/>
  <polygon id="_6_7" class="fil16" points="-92305.02,-7658.27 -92305.02,-10518.02 -91720.98,-10518.02 -91720.98,-8145.64 -90275,-8145.64 -90275,-7658.27 "/>
  <polygon id="_7_8" class="fil16" points="-89860.8,-7658.27 -89860.8,-10542.19 -87726.05,-10542.19 -87726.05,-10054.82 -89276.77,-10054.82 -89276.77,-9414.4 -87834.81,-9414.4 -87834.81,-8927.03 -89276.77,-8927.03 -89276.77,-8145.64 -87669.67,-8145.64 -87669.67,-7658.27 "/>
  <path id="_8" class="fil16" d="M-86055.18 -7658.27l0 -2883.92 933.78 0c353.78,0 584.04,14.1 691.45,42.96 165.14,43.64 303.43,137.62 414.86,282.62 111.44,145 167.16,332.3 167.16,561.88 0,177.23 -32.23,325.59 -96,446.42 -64.45,120.84 -145.67,215.49 -244.35,284.63 -98.69,68.48 -199.38,114.12 -301.42,136.28 -138.96,27.52 -339.68,41.62 -602.83,41.62l-378.62 0 0 1087.51 -584.03 0zm584.03 -2396.55l0 821.67 317.53 0c228.92,0 381.3,-15.44 458.5,-45.65 77.2,-30.2 137.62,-77.2 181.25,-142.31 43.64,-64.45 65.79,-138.96 65.79,-224.89 0,-105.39 -30.88,-191.99 -91.97,-260.46 -61.76,-68.48 -138.96,-111.44 -233.61,-128.9 -69.15,-12.75 -208.11,-19.46 -417.55,-19.46l-279.94 0z"/>
  <path id="_9" class="fil16" d="M-81069.41 -7658.27l-629.01 0 -249.05 -656.53 -1156.66 0 -239.65 656.53 -617.6 0 1119.73 -2883.92 616.93 0 1155.31 2883.92zm-1067.37 -1143.9l-400.77 -1067.37 -389.35 1067.37 790.12 0z"/>
  <path id="_10" class="fil16" d="M-78913.85 -8721.61l563.9 173.19c-86.6,317.53 -230.93,553.16 -432.32,707.56 -201.39,153.72 -456.49,230.92 -765.96,230.92 -383.31,0 -698.15,-130.9 -945.19,-392.71 -246.37,-261.81 -369.89,-619.61 -369.89,-1074.08 0,-479.99 124.19,-853.23 371.9,-1119.07 247.71,-265.83 573.96,-398.75 978.09,-398.75 353.1,0 639.75,104.72 859.94,313.5 131.57,123.52 229.58,300.74 295.37,532.34l-575.98 136.95c-34.23,-149.03 -105.39,-267.18 -213.47,-353.78 -108.75,-86.6 -240.33,-129.56 -394.73,-129.56 -214.14,0 -388.01,76.53 -520.93,230.26 -133.59,153.05 -200.05,401.44 -200.05,745.14 0,363.85 65.79,623.64 196.69,778.04 131.58,155.07 302.09,232.27 512.21,232.27 155.07,0 288.66,-49 400.1,-147.68 111.43,-98.68 191.99,-253.08 240.32,-464.54z"/>
  <polygon id="_11" class="fil16" points="-77841.77,-7658.27 -77841.77,-10542.19 -77257.74,-10542.19 -77257.74,-9264.7 -76080.94,-10542.19 -75298.21,-10542.19 -76386.39,-9419.1 -75241.82,-7658.27 -75995.02,-7658.27 -76788.5,-9012.29 -77257.74,-8530.29 -77257.74,-7658.27 "/>
  <path id="_12" class="fil16" d="M-72343.13 -7658.27l-629.01 0 -249.05 -656.53 -1156.66 0 -239.65 656.53 -617.6 0 1119.73 -2883.92 616.93 0 1155.31 2883.92zm-1067.37 -1143.9l-400.77 -1067.37 -389.35 1067.37 790.12 0z"/>
  <path id="_13" class="fil16" d="M-70691.05 -8717.59l0 -487.36 1252.66 0 0 1150.61c-121.51,118.82 -298.06,222.87 -529.66,313.5 -230.93,89.95 -465.21,134.93 -702.86,134.93 -301.41,0 -563.89,-63.1 -788.11,-189.98 -223.54,-126.87 -392.04,-308.8 -504.82,-544.42 -112.78,-235.63 -169.16,-492.74 -169.16,-769.99 0,-300.74 63.1,-567.92 188.63,-802.21 126.21,-233.61 310.14,-413.52 552.48,-538.38 185.28,-96 414.87,-143.66 690.1,-143.66 357.81,0 637.74,75.19 839.13,225.56 200.72,151.04 330.28,358.47 388.02,624.31l-580.01 108.75c-40.28,-141.64 -116.81,-253.75 -228.91,-336.32 -111.44,-81.9 -251.07,-122.85 -418.9,-122.85 -253.75,0 -455.81,80.56 -605.51,242.34 -149.7,161.78 -224.89,401.44 -224.89,718.97 0,343.03 75.86,600.14 227.57,771.32 152.39,171.19 351.09,257.11 597.46,257.11 121.51,0 243.69,-24.16 365.86,-71.83 122.85,-47.66 227.57,-106.06 315.52,-174.54l0 -365.86 -664.6 0z"/>
  <polygon id="_14" class="fil16" points="-68919.48,-7658.27 -68919.48,-10542.19 -68335.44,-10542.19 -68335.44,-7658.27 "/>
  <polygon id="_15" class="fil16" points="-67780.28,-7658.27 -67780.28,-10542.19 -67215.04,-10542.19 -66028.18,-8609.51 -66028.18,-10542.19 -65488.45,-10542.19 -65488.45,-7658.27 -66071.81,-7658.27 -67240.55,-9554.03 -67240.55,-7658.27 "/>
  <path id="_16" class="fil16" d="M-63530.26 -8717.59l0 -487.36 1252.66 0 0 1150.61c-121.51,118.82 -298.06,222.87 -529.66,313.5 -230.93,89.95 -465.21,134.93 -702.86,134.93 -301.41,0 -563.89,-63.1 -788.11,-189.98 -223.54,-126.87 -392.04,-308.8 -504.82,-544.42 -112.78,-235.63 -169.16,-492.74 -169.16,-769.99 0,-300.74 63.1,-567.92 188.63,-802.21 126.21,-233.61 310.14,-413.52 552.48,-538.38 185.28,-96 414.87,-143.66 690.1,-143.66 357.81,0 637.74,75.19 839.13,225.56 200.72,151.04 330.28,358.47 388.02,624.31l-580.01 108.75c-40.28,-141.64 -116.81,-253.75 -228.91,-336.32 -111.44,-81.9 -251.07,-122.85 -418.9,-122.85 -253.75,0 -455.81,80.56 -605.51,242.34 -149.7,161.78 -224.89,401.44 -224.89,718.97 0,343.03 75.86,600.14 227.57,771.32 152.39,171.19 351.09,257.11 597.46,257.11 121.51,0 243.69,-24.16 365.86,-71.83 122.85,-47.66 227.57,-106.06 315.52,-174.54l0 -365.86 -664.6 0z"/>
  <path class="fil13" d="M-84544.57 -23112.41c3564.41,0 6705.29,1812.32 8552.21,4565.53l-17104.41 0c1846.91,-2753.21 4987.8,-4565.53 8552.2,-4565.53z"/>
  <path class="fil17" d="M12495.52 -60032.27l1343.57 0 -661.89 -1246.61 -681.68 1246.61zm-1371.26 1222.86l1734.36 -3063.09 687.61 0 1757.12 3063.09 -800.4 0 -368.04 -670.79 -1943.12 0 -357.17 670.79 -710.36 0z"/>
  <path id="_1_9" class="fil17" d="M18526.73 -60857.41l-1911.47 0 0 1567.17 1911.47 0 0 -534.26 -997.29 0 0 -445.22 1596.84 0 0 866.69c0,229.53 -44.52,385.85 -134.55,468.96 -90.03,83.11 -262.18,124.66 -517.44,124.66l-1818.46 0c-255.26,0 -427.41,-41.55 -517.44,-124.66 -90.04,-83.11 -134.56,-239.43 -134.56,-468.96l0 -1324.77c0,-228.54 44.52,-384.86 134.56,-467.97 90.03,-83.11 262.18,-124.66 517.44,-124.66l1818.46 0c253.28,0 425.43,40.56 515.46,121.69 91.02,82.12 136.53,228.55 136.53,442.25l0 65.3 -599.55 100.91 0 -267.13z"/>
  <path id="_2_10" class="fil17" d="M19686.27 -58809.41l1489.99 -2511.02 588.67 0 1512.75 2511.02 -686.62 0 -316.6 -552.07 -1660.16 0 -316.6 552.07 -611.43 0zm1188.23 -1009.16l1150.64 0 -584.72 -1046.75 -565.92 1046.75z"/>
  <path id="_3_11" class="fil17" d="M23521.07 -58809.41l1489.99 -2511.02 588.67 0 1512.75 2511.02 -686.62 0 -316.6 -552.07 -1660.16 0 -316.6 552.07 -611.43 0zm1188.23 -1009.16l1150.64 0 -584.72 -1046.75 -565.92 1046.75z"/>
  <path id="_4_12" class="fil17" d="M29737.28 -60887.09l-1396 0 0 694.54 1396 0c105.86,0 179.08,-15.83 218.65,-46.5 39.58,-30.67 59.36,-83.11 59.36,-156.32l0 -288.9c0,-73.21 -19.78,-125.65 -59.36,-156.32 -39.57,-30.67 -112.79,-46.5 -218.65,-46.5zm-2001.5 2077.68l0 -2511.02 2261.7 0c206.78,0 356.18,38.58 449.18,114.77 92.01,76.18 138.51,200.84 138.51,373.98l0 589.66c0,171.16 -46.5,293.85 -138.51,369.04 -93,76.18 -242.4,113.77 -449.18,113.77l-344.3 0 1193.18 949.8 -877.57 0 -1051.7 -949.8 -575.81 0 0 949.8 -605.5 0z"/>
  <polygon id="_5_13" class="fil17" points="32269.07,-58809.41 31249.03,-61320.43 31889.16,-61320.43 32548.08,-59569.25 33254.49,-61320.43 33674.97,-61320.43 34376.43,-59569.25 35022.49,-61320.43 35576.54,-61320.43 34567.38,-58809.41 34150.86,-58809.41 33425.65,-60584.34 32689.56,-58809.41 "/>
  <path id="_6_14" class="fil17" d="M35897.1 -58809.41l1489.99 -2511.02 588.67 0 1512.75 2511.02 -686.62 0 -316.6 -552.07 -1660.16 0 -316.6 552.07 -611.43 0zm1188.23 -1009.16l1150.64 0 -584.72 -1046.75 -565.92 1046.75z"/>
  <polygon id="_7_15" class="fil17" points="40111.81,-58809.41 40111.81,-61320.43 40729.18,-61320.43 40729.18,-59278.37 42700.01,-59278.37 42700.01,-58809.41 "/>
  <polygon class="fil17" points="10993.99,-56288.49 10993.99,-57624.79 12345.83,-57624.79 12345.83,-57391.71 11304.76,-57391.71 11304.76,-57039.51 11866.73,-57039.51 11866.73,-56796.08 11304.76,-56796.08 11304.76,-56288.49 "/>
  <polygon id="_1_16" class="fil17" points="12731.26,-56288.49 12731.26,-57624.79 13042.03,-57624.79 13042.03,-56539.69 14044.25,-56539.69 14044.25,-56288.49 "/>
  <polygon id="_2_17" class="fil17" points="14500.47,-56288.49 14500.47,-57624.79 15867.85,-57624.79 15867.85,-57396.89 14811.24,-57396.89 14811.24,-57099.07 15427.59,-57099.07 15427.59,-56871.18 14811.24,-56871.18 14811.24,-56539.69 15880.79,-56539.69 15880.79,-56288.49 "/>
  <polygon id="_3_18" class="fil17" points="16251.56,-56288.49 16884.74,-56974.77 16240.34,-57624.79 16652.53,-57624.79 17079.41,-57171.15 17485.13,-57624.79 17842.94,-57624.79 17260.25,-57010.59 17980.63,-56288.49 17558.5,-56288.49 17069.48,-56806.87 16618.44,-56288.49 "/>
  <polygon id="_4_19" class="fil17" points="18314.27,-56288.49 18314.27,-57624.79 18625.04,-57624.79 18625.04,-56288.49 "/>
  <path id="_5_20" class="fil17" d="M20323.03 -57407.25l-709.15 0 0 318.54 709.15 0c53.95,0 91.07,-7.34 111.79,-21.58 20.72,-14.25 31.08,-39.28 31.08,-74.67l0 -126.04c0,-34.96 -10.36,-59.56 -31.08,-74.24 -20.72,-14.67 -57.84,-22.01 -111.79,-22.01zm0 538.66l-709.15 0 0 339.26 709.15 0c59.13,0 98.84,-8.64 119.56,-26.33 20.72,-17.7 31.08,-48.78 31.08,-93.66l0 -100.57c0,-44.89 -10.36,-75.54 -31.08,-92.8 -20.72,-17.26 -60.43,-25.9 -119.56,-25.9zm-1014.74 580.1l0 -1336.3 1145.09 0c105.32,0 181.71,20.72 229.19,62.16 47.05,41 70.79,107.04 70.79,197.25l0 162.72c0,64.31 -19.86,115.67 -59.57,153.66 -39.71,38.41 -96.68,62.15 -170.92,71.64 76.83,9.93 136.39,37.56 178.26,82.01 41.87,44.46 62.59,102.73 62.59,174.38l0 170.06c0,88.91 -32.38,154.52 -97.55,197.68 -65.18,43.16 -163.58,64.74 -296.52,64.74l-1061.36 0z"/>
  <polygon id="_6_21" class="fil17" points="21364.53,-56288.49 21364.53,-57624.79 21675.3,-57624.79 21675.3,-56539.69 22677.52,-56539.69 22677.52,-56288.49 "/>
  <polygon id="_7_22" class="fil17" points="23133.74,-56288.49 23133.74,-57624.79 24501.12,-57624.79 24501.12,-57396.89 23444.51,-57396.89 23444.51,-57099.07 24060.86,-57099.07 24060.86,-56871.18 23444.51,-56871.18 23444.51,-56539.69 24514.06,-56539.69 24514.06,-56288.49 "/>
  <path id="_8_23" class="fil17" d="M27095.58 -57394.3l-698.79 0 0 354.79 698.79 0c53.96,0 90.64,-7.77 110.5,-23.31 19.85,-15.53 29.78,-43.59 29.78,-83.3l0 -142.87c0,-38.84 -9.93,-66.03 -29.78,-82 -19.86,-15.54 -56.54,-23.31 -110.5,-23.31zm-1004.38 1105.81l0 -1336.3 1142.07 0c106.61,0 183.87,20.29 231.35,61.29 47.91,40.58 71.65,106.18 71.65,197.25l0 298.69c0,90.64 -23.74,156.24 -71.65,197.25 -47.48,41 -124.74,61.29 -231.35,61.29l-836.48 0 0 520.53 -305.59 0z"/>
  <path id="_9_24" class="fil17" d="M28216.07 -56821.97l586.14 0 -288.76 -543.84 -297.38 543.84zm-598.23 533.48l756.63 -1336.3 299.98 0 766.55 1336.3 -349.18 0 -160.56 -292.64 -847.7 0 -155.82 292.64 -309.9 0z"/>
  <path id="_10_25" class="fil17" d="M30946.92 -57386.53l-839.07 0 0 846.84 839.07 0 0 -287.46 310.77 64.74 0 157.97c0,122.15 -22.88,205.46 -69.06,249.48 -45.75,44.46 -132.94,66.47 -261.99,66.47l-798.5 0c-129.92,0 -217.54,-22.01 -262.86,-66.47 -45.32,-44.02 -68.19,-127.33 -68.19,-249.48l0 -704.83c0,-120.85 22.87,-204.16 68.19,-248.61 45.32,-44.46 132.94,-66.91 262.86,-66.91l798.5 0c129.05,0 216.24,22.45 261.99,66.91 46.18,44.45 69.06,127.76 69.06,248.61l0 126.9 -310.77 49.63 0 -253.79z"/>
  <polygon id="_11_26" class="fil17" points="31899.5,-56288.49 31899.5,-57624.79 32212.86,-57624.79 32212.86,-57067.13 32953.95,-57624.79 33404.13,-57624.79 32518.88,-56995.05 33512.9,-56288.49 33013.51,-56288.49 32212.86,-56876.36 32212.86,-56288.49 "/>
  <path id="_12_27" class="fil17" d="M34205.22 -56821.97l586.14 0 -288.76 -543.84 -297.38 543.84zm-598.23 533.48l756.63 -1336.3 299.98 0 766.55 1336.3 -349.18 0 -160.56 -292.64 -847.7 0 -155.82 292.64 -309.9 0z"/>
  <path id="_13_28" class="fil17" d="M37068.15 -57386.53l-971.15 0 0 846.84 971.15 0 0 -297.82 -507.59 0 0 -227.9 810.58 0 0 460.97c0,122.15 -22.87,205.46 -68.62,249.48 -45.32,44.46 -133.37,66.47 -263.29,66.47l-921.94 0c-129.92,0 -217.54,-22.01 -262.86,-66.47 -45.32,-44.02 -68.19,-127.33 -68.19,-249.48l0 -704.4c0,-121.28 22.87,-204.16 68.19,-249.04 45.32,-44.46 132.94,-66.91 262.86,-66.91l921.94 0c128.19,0 215.81,22.02 262.42,65.61 46.19,44.03 69.49,123.01 69.49,237.39l0 30.65 -302.99 54.81 0 -150.2z"/>
  <polygon id="_14_29" class="fil17" points="38028.93,-56288.49 38028.93,-57624.79 38339.7,-57624.79 38339.7,-56288.49 "/>
  <path id="_15_30" class="fil17" d="M39020.36 -56288.49l0 -1336.3 212.36 0 940.93 787.71c31.94,25.9 60,50.5 84.6,73.81 24.6,23.31 46.61,47.04 66.9,71.65 -4.75,-75.1 -8.2,-128.19 -9.93,-159.27 -1.72,-31.51 -2.59,-55.25 -2.59,-72.08l0 -701.82 279.69 0 0 1336.3 -212.35 0 -981.51 -825.69c-23.31,-21.15 -44.02,-39.71 -61.72,-56.97 -17.7,-16.84 -34.1,-34.1 -49.2,-51.8 3.88,41.44 7.33,80.28 9.49,116.97 2.16,36.69 3.02,68.63 3.02,95.39l0 722.1 -279.69 0z"/>
  <path id="_16_31" class="fil17" d="M42527.28 -57386.53l-971.15 0 0 846.84 971.15 0 0 -297.82 -507.59 0 0 -227.9 810.58 0 0 460.97c0,122.15 -22.87,205.46 -68.62,249.48 -45.32,44.46 -133.37,66.47 -263.29,66.47l-921.94 0c-129.92,0 -217.54,-22.01 -262.86,-66.47 -45.32,-44.02 -68.19,-127.33 -68.19,-249.48l0 -704.4c0,-121.28 22.87,-204.16 68.19,-249.04 45.32,-44.46 132.94,-66.91 262.86,-66.91l921.94 0c128.19,0 215.81,22.02 262.42,65.61 46.19,44.03 69.49,123.01 69.49,237.39l0 30.65 -302.99 54.81 0 -150.2z"/>
  <polygon class="fil17" points="-83162.98,-58429.93 -83162.98,-60836.25 -80728.67,-60836.25 -80728.67,-60416.55 -82603.37,-60416.55 -82603.37,-59782.32 -81591.41,-59782.32 -81591.41,-59343.96 -82603.37,-59343.96 -82603.37,-58429.93 "/>
  <polygon id="_1_32" class="fil17" points="-80034.6,-58429.93 -80034.6,-60836.25 -79474.99,-60836.25 -79474.99,-58882.28 -77670.24,-58882.28 -77670.24,-58429.93 "/>
  <polygon id="_2_33" class="fil17" points="-76848.71,-58429.93 -76848.71,-60836.25 -74386.42,-60836.25 -74386.42,-60425.87 -76289.1,-60425.87 -76289.1,-59889.58 -75179.2,-59889.58 -75179.2,-59479.2 -76289.1,-59479.2 -76289.1,-58882.28 -74363.11,-58882.28 -74363.11,-58429.93 "/>
  <polygon id="_3_34" class="fil17" points="-73695.46,-58429.93 -72555.26,-59665.74 -73715.67,-60836.25 -72973.41,-60836.25 -72204.72,-60019.38 -71474.12,-60836.25 -70829.79,-60836.25 -71879.06,-59730.25 -70581.85,-58429.93 -71341.99,-58429.93 -72222.6,-59363.39 -73034.81,-58429.93 "/>
  <polygon id="_4_35" class="fil17" points="-69981.05,-58429.93 -69981.05,-60836.25 -69421.44,-60836.25 -69421.44,-58429.93 "/>
  <path id="_5_36" class="fil17" d="M-66363.79 -60444.53l-1276.99 0 0 573.6 1276.99 0c97.16,0 164,-13.21 201.31,-38.86 37.31,-25.65 55.96,-70.73 55.96,-134.46l0 -226.95c0,-62.96 -18.65,-107.26 -55.96,-133.69 -37.31,-26.42 -104.15,-39.64 -201.31,-39.64zm0 969.99l-1276.99 0 0 610.91 1276.99 0c106.49,0 177.99,-15.54 215.3,-47.41 37.31,-31.87 55.96,-87.83 55.96,-168.66l0 -181.1c0,-80.83 -18.65,-136.01 -55.96,-167.1 -37.31,-31.09 -108.81,-46.64 -215.3,-46.64zm-1827.28 1044.61l0 -2406.32 2062.01 0c189.65,0 327.22,37.3 412.71,111.92 84.72,73.83 127.47,192.75 127.47,355.19l0 293.02c0,115.81 -35.75,208.3 -107.26,276.7 -71.5,69.17 -174.1,111.92 -307.78,129.02 138.34,17.88 245.6,67.62 320.99,147.68 75.4,80.05 112.7,184.98 112.7,314l0 306.23c0,160.11 -58.29,278.25 -175.65,355.97 -117.36,77.73 -294.57,116.59 -533.96,116.59l-1911.23 0z"/>
  <polygon id="_6_37" class="fil17" points="-64488.31,-58429.93 -64488.31,-60836.25 -63928.7,-60836.25 -63928.7,-58882.28 -62123.95,-58882.28 -62123.95,-58429.93 "/>
  <polygon id="_7_38" class="fil17" points="-61302.42,-58429.93 -61302.42,-60836.25 -58840.13,-60836.25 -58840.13,-60425.87 -60742.81,-60425.87 -60742.81,-59889.58 -59632.91,-59889.58 -59632.91,-59479.2 -60742.81,-59479.2 -60742.81,-58882.28 -58816.82,-58882.28 -58816.82,-58429.93 "/>
  <path id="_8_39" class="fil17" d="M-54168.17 -60421.21l-1258.34 0 0 638.89 1258.34 0c97.16,0 163.22,-13.99 198.97,-41.97 35.76,-27.98 53.63,-78.5 53.63,-150.01l0 -257.26c0,-69.96 -17.87,-118.92 -53.63,-147.68 -35.75,-27.98 -101.81,-41.97 -198.97,-41.97zm-1808.63 1991.28l0 -2406.32 2056.57 0c191.98,0 331.1,36.53 416.6,110.36 86.27,73.06 129.02,191.2 129.02,355.2l0 537.85c0,163.22 -42.75,281.36 -129.02,355.19 -85.5,73.84 -224.62,110.37 -416.6,110.37l-1506.28 0 0 937.35 -550.29 0z"/>
  <path id="_9_40" class="fil17" d="M-52150.46 -59390.59l1055.49 0 -519.97 -979.32 -535.52 979.32zm-1077.25 960.66l1362.5 -2406.32 540.18 0 1380.37 2406.32 -628.78 0 -289.14 -526.97 -1526.49 0 -280.58 526.97 -558.06 0z"/>
  <path id="_10_41" class="fil17" d="M-47232.88 -60407.22l-1510.95 0 0 1524.94 1510.95 0 0 -517.64 559.61 116.58 0 284.47c0,219.96 -41.19,369.97 -124.36,449.25 -82.38,80.05 -239.38,119.69 -471.78,119.69l-1437.89 0c-233.94,0 -391.72,-39.64 -473.33,-119.69 -81.61,-79.28 -122.81,-229.29 -122.81,-449.25l0 -1269.22c0,-217.63 41.2,-367.64 122.81,-447.69 81.61,-80.06 239.39,-120.47 473.33,-120.47l1437.89 0c232.4,0 389.4,40.41 471.78,120.47 83.17,80.05 124.36,230.06 124.36,447.69l0 228.5 -559.61 89.39 0 -457.02z"/>
  <polygon id="_11_42" class="fil17" points="-45517.52,-58429.93 -45517.52,-60836.25 -44953.24,-60836.25 -44953.24,-59832.06 -43618.73,-60836.25 -42808.07,-60836.25 -44402.18,-59702.27 -42612.21,-58429.93 -43511.47,-58429.93 -44953.24,-59488.53 -44953.24,-58429.93 "/>
  <path id="_12_43" class="fil17" d="M-41365.52 -59390.59l1055.49 0 -519.97 -979.32 -535.52 979.32zm-1077.25 960.66l1362.5 -2406.32 540.18 0 1380.37 2406.32 -628.78 0 -289.14 -526.97 -1526.49 0 -280.58 526.97 -558.06 0z"/>
  <path id="_13_44" class="fil17" d="M-36210.1 -60407.22l-1748.79 0 0 1524.94 1748.79 0 0 -536.3 -914.03 0 0 -410.38 1459.65 0 0 830.09c0,219.96 -41.2,369.97 -123.58,449.25 -81.61,80.05 -240.17,119.69 -474.12,119.69l-1660.18 0c-233.94,0 -391.72,-39.64 -473.33,-119.69 -81.61,-79.28 -122.81,-229.29 -122.81,-449.25l0 -1268.45c0,-218.4 41.2,-367.63 122.81,-448.46 81.61,-80.06 239.39,-120.47 473.33,-120.47l1660.18 0c230.84,0 388.62,39.63 472.56,118.14 83.17,79.27 125.14,221.51 125.14,427.48l0 55.18 -545.62 98.71 0 -270.48z"/>
  <polygon id="_14_45" class="fil17" points="-34479.98,-58429.93 -34479.98,-60836.25 -33920.37,-60836.25 -33920.37,-58429.93 "/>
  <path id="_15_46" class="fil17" d="M-32694.66 -58429.93l0 -2406.32 382.4 0 1694.37 1418.45c57.52,46.64 108.04,90.94 152.34,132.91 44.31,41.97 83.94,84.72 120.47,129.02 -8.55,-135.24 -14.76,-230.84 -17.87,-286.8 -3.11,-56.74 -4.67,-99.49 -4.67,-129.8l0 -1263.78 503.65 0 0 2406.32 -382.4 0 -1767.43 -1486.85c-41.97,-38.09 -79.28,-71.51 -111.15,-102.6 -31.86,-30.31 -61.4,-61.4 -88.6,-93.27 6.99,74.62 13.21,144.57 17.1,210.63 3.88,66.07 5.44,123.58 5.44,171.77l0 1300.32 -503.65 0z"/>
  <path id="_16_47" class="fil17" d="M-26379.61 -60407.22l-1748.79 0 0 1524.94 1748.79 0 0 -536.3 -914.03 0 0 -410.38 1459.65 0 0 830.09c0,219.96 -41.2,369.97 -123.58,449.25 -81.61,80.05 -240.17,119.69 -474.12,119.69l-1660.18 0c-233.94,0 -391.72,-39.64 -473.33,-119.69 -81.61,-79.28 -122.81,-229.29 -122.81,-449.25l0 -1268.45c0,-218.4 41.2,-367.63 122.81,-448.46 81.61,-80.06 239.39,-120.47 473.33,-120.47l1660.18 0c230.84,0 388.62,39.63 472.56,118.14 83.17,79.27 125.14,221.51 125.14,427.48l0 55.18 -545.62 98.71 0 -270.48z"/>
  <g id="_1845304339520">
   <path class="fil17" d="M34812.68 -27554.81l1343.57 0 -661.89 -1246.61 -681.68 1246.61zm-1371.26 1222.86l1734.36 -3063.09 687.61 0 1757.12 3063.09 -800.4 0 -368.04 -670.79 -1943.12 0 -357.17 670.79 -710.36 0z"/>
   <path id="_1_48" class="fil17" d="M40843.89 -28379.95l-1911.47 0 0 1567.17 1911.47 0 0 -534.26 -997.29 0 0 -445.22 1596.84 0 0 866.69c0,229.53 -44.52,385.85 -134.55,468.96 -90.03,83.11 -262.18,124.66 -517.44,124.66l-1818.46 0c-255.26,0 -427.41,-41.55 -517.44,-124.66 -90.04,-83.11 -134.56,-239.43 -134.56,-468.96l0 -1324.77c0,-228.54 44.52,-384.86 134.56,-467.97 90.03,-83.11 262.18,-124.66 517.44,-124.66l1818.46 0c253.28,0 425.43,40.56 515.46,121.69 91.02,82.12 136.53,228.55 136.53,442.25l0 65.3 -599.55 100.91 0 -267.13z"/>
   <path id="_2_49" class="fil17" d="M42003.43 -26331.95l1489.99 -2511.02 588.67 0 1512.75 2511.02 -686.62 0 -316.6 -552.07 -1660.16 0 -316.6 552.07 -611.43 0zm1188.23 -1009.16l1150.64 0 -584.72 -1046.75 -565.92 1046.75z"/>
   <path id="_3_50" class="fil17" d="M45838.23 -26331.95l1489.99 -2511.02 588.67 0 1512.75 2511.02 -686.62 0 -316.6 -552.07 -1660.16 0 -316.6 552.07 -611.43 0zm1188.23 -1009.16l1150.64 0 -584.72 -1046.75 -565.92 1046.75z"/>
   <path id="_4_51" class="fil17" d="M52054.44 -28409.63l-1396 0 0 694.54 1396 0c105.86,0 179.08,-15.83 218.65,-46.5 39.58,-30.67 59.36,-83.11 59.36,-156.32l0 -288.9c0,-73.21 -19.78,-125.65 -59.36,-156.32 -39.57,-30.67 -112.79,-46.5 -218.65,-46.5zm-2001.5 2077.68l0 -2511.02 2261.7 0c206.78,0 356.18,38.58 449.18,114.77 92.01,76.18 138.51,200.84 138.51,373.98l0 589.66c0,171.16 -46.5,293.85 -138.51,369.04 -93,76.18 -242.4,113.77 -449.18,113.77l-344.3 0 1193.18 949.8 -877.57 0 -1051.7 -949.8 -575.81 0 0 949.8 -605.5 0z"/>
   <polygon id="_5_52" class="fil17" points="54586.23,-26331.95 53566.19,-28842.97 54206.32,-28842.97 54865.24,-27091.79 55571.65,-28842.97 55992.13,-28842.97 56693.59,-27091.79 57339.65,-28842.97 57893.7,-28842.97 56884.54,-26331.95 56468.02,-26331.95 55742.81,-28106.88 55006.72,-26331.95 "/>
   <path id="_6_53" class="fil17" d="M58214.26 -26331.95l1489.99 -2511.02 588.67 0 1512.75 2511.02 -686.62 0 -316.6 -552.07 -1660.16 0 -316.6 552.07 -611.43 0zm1188.23 -1009.16l1150.64 0 -584.72 -1046.75 -565.92 1046.75z"/>
   <polygon id="_7_54" class="fil17" points="62428.97,-26331.95 62428.97,-28842.97 63046.34,-28842.97 63046.34,-26800.91 65017.17,-26800.91 65017.17,-26331.95 "/>
   <polygon class="fil17" points="33311.15,-23811.03 33311.15,-25147.33 34662.99,-25147.33 34662.99,-24914.25 33621.92,-24914.25 33621.92,-24562.05 34183.89,-24562.05 34183.89,-24318.62 33621.92,-24318.62 33621.92,-23811.03 "/>
   <polygon id="_1_55" class="fil17" points="35048.42,-23811.03 35048.42,-25147.33 35359.19,-25147.33 35359.19,-24062.23 36361.41,-24062.23 36361.41,-23811.03 "/>
   <polygon id="_2_56" class="fil17" points="36817.63,-23811.03 36817.63,-25147.33 38185.01,-25147.33 38185.01,-24919.43 37128.4,-24919.43 37128.4,-24621.61 37744.75,-24621.61 37744.75,-24393.72 37128.4,-24393.72 37128.4,-24062.23 38197.95,-24062.23 38197.95,-23811.03 "/>
   <polygon id="_3_57" class="fil17" points="38568.72,-23811.03 39201.9,-24497.31 38557.5,-25147.33 38969.69,-25147.33 39396.57,-24693.69 39802.29,-25147.33 40160.1,-25147.33 39577.41,-24533.13 40297.79,-23811.03 39875.66,-23811.03 39386.64,-24329.41 38935.6,-23811.03 "/>
   <polygon id="_4_58" class="fil17" points="40631.43,-23811.03 40631.43,-25147.33 40942.2,-25147.33 40942.2,-23811.03 "/>
   <path id="_5_59" class="fil17" d="M42640.19 -24929.79l-709.15 0 0 318.54 709.15 0c53.95,0 91.07,-7.34 111.79,-21.58 20.72,-14.25 31.08,-39.28 31.08,-74.67l0 -126.04c0,-34.96 -10.36,-59.56 -31.08,-74.24 -20.72,-14.67 -57.84,-22.01 -111.79,-22.01zm0 538.66l-709.15 0 0 339.26 709.15 0c59.13,0 98.84,-8.64 119.56,-26.33 20.72,-17.7 31.08,-48.78 31.08,-93.66l0 -100.57c0,-44.89 -10.36,-75.54 -31.08,-92.8 -20.72,-17.26 -60.43,-25.9 -119.56,-25.9zm-1014.74 580.1l0 -1336.3 1145.09 0c105.32,0 181.71,20.72 229.19,62.16 47.05,41 70.79,107.04 70.79,197.25l0 162.72c0,64.31 -19.86,115.67 -59.57,153.66 -39.71,38.41 -96.68,62.15 -170.92,71.64 76.83,9.93 136.39,37.56 178.26,82.01 41.87,44.46 62.59,102.73 62.59,174.38l0 170.06c0,88.91 -32.38,154.52 -97.55,197.68 -65.18,43.16 -163.58,64.74 -296.52,64.74l-1061.36 0z"/>
   <polygon id="_6_60" class="fil17" points="43681.69,-23811.03 43681.69,-25147.33 43992.46,-25147.33 43992.46,-24062.23 44994.68,-24062.23 44994.68,-23811.03 "/>
   <polygon id="_7_61" class="fil17" points="45450.9,-23811.03 45450.9,-25147.33 46818.28,-25147.33 46818.28,-24919.43 45761.67,-24919.43 45761.67,-24621.61 46378.02,-24621.61 46378.02,-24393.72 45761.67,-24393.72 45761.67,-24062.23 46831.22,-24062.23 46831.22,-23811.03 "/>
   <path id="_8_62" class="fil17" d="M49412.74 -24916.84l-698.79 0 0 354.79 698.79 0c53.96,0 90.64,-7.77 110.5,-23.31 19.85,-15.53 29.78,-43.59 29.78,-83.3l0 -142.87c0,-38.84 -9.93,-66.03 -29.78,-82 -19.86,-15.54 -56.54,-23.31 -110.5,-23.31zm-1004.38 1105.81l0 -1336.3 1142.07 0c106.61,0 183.87,20.29 231.35,61.29 47.91,40.58 71.65,106.18 71.65,197.25l0 298.69c0,90.64 -23.74,156.24 -71.65,197.25 -47.48,41 -124.74,61.29 -231.35,61.29l-836.48 0 0 520.53 -305.59 0z"/>
   <path id="_9_63" class="fil17" d="M50533.23 -24344.51l586.14 0 -288.76 -543.84 -297.38 543.84zm-598.23 533.48l756.63 -1336.3 299.98 0 766.55 1336.3 -349.18 0 -160.56 -292.64 -847.7 0 -155.82 292.64 -309.9 0z"/>
   <path id="_10_64" class="fil17" d="M53264.08 -24909.07l-839.07 0 0 846.84 839.07 0 0 -287.46 310.77 64.74 0 157.97c0,122.15 -22.88,205.46 -69.06,249.48 -45.75,44.46 -132.94,66.47 -261.99,66.47l-798.5 0c-129.92,0 -217.54,-22.01 -262.86,-66.47 -45.32,-44.02 -68.19,-127.33 -68.19,-249.48l0 -704.83c0,-120.85 22.87,-204.16 68.19,-248.61 45.32,-44.46 132.94,-66.91 262.86,-66.91l798.5 0c129.05,0 216.24,22.45 261.99,66.91 46.18,44.45 69.06,127.76 69.06,248.61l0 126.9 -310.77 49.63 0 -253.79z"/>
   <polygon id="_11_65" class="fil17" points="54216.66,-23811.03 54216.66,-25147.33 54530.02,-25147.33 54530.02,-24589.67 55271.11,-25147.33 55721.29,-25147.33 54836.04,-24517.59 55830.06,-23811.03 55330.67,-23811.03 54530.02,-24398.9 54530.02,-23811.03 "/>
   <path id="_12_66" class="fil17" d="M56522.38 -24344.51l586.14 0 -288.76 -543.84 -297.38 543.84zm-598.23 533.48l756.63 -1336.3 299.98 0 766.55 1336.3 -349.18 0 -160.56 -292.64 -847.7 0 -155.82 292.64 -309.9 0z"/>
   <path id="_13_67" class="fil17" d="M59385.31 -24909.07l-971.15 0 0 846.84 971.15 0 0 -297.82 -507.59 0 0 -227.9 810.58 0 0 460.97c0,122.15 -22.87,205.46 -68.62,249.48 -45.32,44.46 -133.37,66.47 -263.29,66.47l-921.94 0c-129.92,0 -217.54,-22.01 -262.86,-66.47 -45.32,-44.02 -68.19,-127.33 -68.19,-249.48l0 -704.4c0,-121.28 22.87,-204.16 68.19,-249.04 45.32,-44.46 132.94,-66.91 262.86,-66.91l921.94 0c128.19,0 215.81,22.02 262.42,65.61 46.19,44.03 69.49,123.01 69.49,237.39l0 30.65 -302.99 54.81 0 -150.2z"/>
   <polygon id="_14_68" class="fil17" points="60346.09,-23811.03 60346.09,-25147.33 60656.86,-25147.33 60656.86,-23811.03 "/>
   <path id="_15_69" class="fil17" d="M61337.52 -23811.03l0 -1336.3 212.36 0 940.93 787.71c31.94,25.9 60,50.5 84.6,73.81 24.6,23.31 46.61,47.04 66.9,71.65 -4.75,-75.1 -8.2,-128.19 -9.93,-159.27 -1.72,-31.51 -2.59,-55.25 -2.59,-72.08l0 -701.82 279.69 0 0 1336.3 -212.35 0 -981.51 -825.69c-23.31,-21.15 -44.02,-39.71 -61.72,-56.97 -17.7,-16.84 -34.1,-34.1 -49.2,-51.8 3.88,41.44 7.33,80.28 9.49,116.97 2.16,36.69 3.02,68.63 3.02,95.39l0 722.1 -279.69 0z"/>
   <path id="_16_70" class="fil17" d="M64844.44 -24909.07l-971.15 0 0 846.84 971.15 0 0 -297.82 -507.59 0 0 -227.9 810.58 0 0 460.97c0,122.15 -22.87,205.46 -68.62,249.48 -45.32,44.46 -133.37,66.47 -263.29,66.47l-921.94 0c-129.92,0 -217.54,-22.01 -262.86,-66.47 -45.32,-44.02 -68.19,-127.33 -68.19,-249.48l0 -704.4c0,-121.28 22.87,-204.16 68.19,-249.04 45.32,-44.46 132.94,-66.91 262.86,-66.91l921.94 0c128.19,0 215.81,22.02 262.42,65.61 46.19,44.03 69.49,123.01 69.49,237.39l0 30.65 -302.99 54.81 0 -150.2z"/>
  </g>
  <g id="_1845304339328">
   <path class="fil17" d="M41397.14 2850.99l1343.57 0 -661.89 -1246.61 -681.68 1246.61zm-1371.26 1222.86l1734.36 -3063.09 687.61 0 1757.12 3063.09 -800.4 0 -368.04 -670.79 -1943.12 0 -357.17 670.79 -710.36 0z"/>
   <path id="_1_71" class="fil17" d="M47428.35 2025.85l-1911.47 0 0 1567.17 1911.47 0 0 -534.26 -997.29 0 0 -445.22 1596.84 0 0 866.69c0,229.53 -44.52,385.85 -134.55,468.96 -90.03,83.11 -262.18,124.66 -517.44,124.66l-1818.46 0c-255.26,0 -427.41,-41.55 -517.44,-124.66 -90.04,-83.11 -134.56,-239.43 -134.56,-468.96l0 -1324.77c0,-228.54 44.52,-384.86 134.56,-467.97 90.03,-83.11 262.18,-124.66 517.44,-124.66l1818.46 0c253.28,0 425.43,40.56 515.46,121.69 91.02,82.12 136.53,228.55 136.53,442.25l0 65.3 -599.55 100.91 0 -267.13z"/>
   <path id="_2_72" class="fil17" d="M48587.89 4073.85l1489.99 -2511.02 588.67 0 1512.75 2511.02 -686.62 0 -316.6 -552.07 -1660.16 0 -316.6 552.07 -611.43 0zm1188.23 -1009.16l1150.64 0 -584.72 -1046.75 -565.92 1046.75z"/>
   <path id="_3_73" class="fil17" d="M52422.69 4073.85l1489.99 -2511.02 588.67 0 1512.75 2511.02 -686.62 0 -316.6 -552.07 -1660.16 0 -316.6 552.07 -611.43 0zm1188.23 -1009.16l1150.64 0 -584.72 -1046.75 -565.92 1046.75z"/>
   <path id="_4_74" class="fil17" d="M58638.9 1996.17l-1396 0 0 694.54 1396 0c105.86,0 179.08,-15.83 218.65,-46.5 39.58,-30.67 59.36,-83.11 59.36,-156.32l0 -288.9c0,-73.21 -19.78,-125.65 -59.36,-156.32 -39.57,-30.67 -112.79,-46.5 -218.65,-46.5zm-2001.5 2077.68l0 -2511.02 2261.7 0c206.78,0 356.18,38.58 449.18,114.77 92.01,76.18 138.51,200.84 138.51,373.98l0 589.66c0,171.16 -46.5,293.85 -138.51,369.04 -93,76.18 -242.4,113.77 -449.18,113.77l-344.3 0 1193.18 949.8 -877.57 0 -1051.7 -949.8 -575.81 0 0 949.8 -605.5 0z"/>
   <polygon id="_5_75" class="fil17" points="61170.69,4073.85 60150.65,1562.83 60790.78,1562.83 61449.7,3314.01 62156.11,1562.83 62576.59,1562.83 63278.05,3314.01 63924.11,1562.83 64478.16,1562.83 63469,4073.85 63052.48,4073.85 62327.27,2298.92 61591.18,4073.85 "/>
   <path id="_6_76" class="fil17" d="M64798.72 4073.85l1489.99 -2511.02 588.67 0 1512.75 2511.02 -686.62 0 -316.6 -552.07 -1660.16 0 -316.6 552.07 -611.43 0zm1188.23 -1009.16l1150.64 0 -584.72 -1046.75 -565.92 1046.75z"/>
   <polygon id="_7_77" class="fil17" points="69013.43,4073.85 69013.43,1562.83 69630.8,1562.83 69630.8,3604.89 71601.63,3604.89 71601.63,4073.85 "/>
   <polygon class="fil17" points="39895.61,6594.77 39895.61,5258.47 41247.45,5258.47 41247.45,5491.55 40206.38,5491.55 40206.38,5843.75 40768.35,5843.75 40768.35,6087.18 40206.38,6087.18 40206.38,6594.77 "/>
   <polygon id="_1_78" class="fil17" points="41632.88,6594.77 41632.88,5258.47 41943.65,5258.47 41943.65,6343.57 42945.87,6343.57 42945.87,6594.77 "/>
   <polygon id="_2_79" class="fil17" points="43402.09,6594.77 43402.09,5258.47 44769.47,5258.47 44769.47,5486.37 43712.86,5486.37 43712.86,5784.19 44329.21,5784.19 44329.21,6012.08 43712.86,6012.08 43712.86,6343.57 44782.41,6343.57 44782.41,6594.77 "/>
   <polygon id="_3_80" class="fil17" points="45153.18,6594.77 45786.36,5908.49 45141.96,5258.47 45554.15,5258.47 45981.03,5712.11 46386.75,5258.47 46744.56,5258.47 46161.87,5872.67 46882.25,6594.77 46460.12,6594.77 45971.1,6076.39 45520.06,6594.77 "/>
   <polygon id="_4_81" class="fil17" points="47215.89,6594.77 47215.89,5258.47 47526.66,5258.47 47526.66,6594.77 "/>
   <path id="_5_82" class="fil17" d="M49224.65 5476.01l-709.15 0 0 318.54 709.15 0c53.95,0 91.07,-7.34 111.79,-21.58 20.72,-14.25 31.08,-39.28 31.08,-74.67l0 -126.04c0,-34.96 -10.36,-59.56 -31.08,-74.24 -20.72,-14.67 -57.84,-22.01 -111.79,-22.01zm0 538.66l-709.15 0 0 339.26 709.15 0c59.13,0 98.84,-8.64 119.56,-26.33 20.72,-17.7 31.08,-48.78 31.08,-93.66l0 -100.57c0,-44.89 -10.36,-75.54 -31.08,-92.8 -20.72,-17.26 -60.43,-25.9 -119.56,-25.9zm-1014.74 580.1l0 -1336.3 1145.09 0c105.32,0 181.71,20.72 229.19,62.16 47.05,41 70.79,107.04 70.79,197.25l0 162.72c0,64.31 -19.86,115.67 -59.57,153.66 -39.71,38.41 -96.68,62.15 -170.92,71.64 76.83,9.93 136.39,37.56 178.26,82.01 41.87,44.46 62.59,102.73 62.59,174.38l0 170.06c0,88.91 -32.38,154.52 -97.55,197.68 -65.18,43.16 -163.58,64.74 -296.52,64.74l-1061.36 0z"/>
   <polygon id="_6_83" class="fil17" points="50266.15,6594.77 50266.15,5258.47 50576.92,5258.47 50576.92,6343.57 51579.14,6343.57 51579.14,6594.77 "/>
   <polygon id="_7_84" class="fil17" points="52035.36,6594.77 52035.36,5258.47 53402.74,5258.47 53402.74,5486.37 52346.13,5486.37 52346.13,5784.19 52962.48,5784.19 52962.48,6012.08 52346.13,6012.08 52346.13,6343.57 53415.68,6343.57 53415.68,6594.77 "/>
   <path id="_8_85" class="fil17" d="M55997.2 5488.96l-698.79 0 0 354.79 698.79 0c53.96,0 90.64,-7.77 110.5,-23.31 19.85,-15.53 29.78,-43.59 29.78,-83.3l0 -142.87c0,-38.84 -9.93,-66.03 -29.78,-82 -19.86,-15.54 -56.54,-23.31 -110.5,-23.31zm-1004.38 1105.81l0 -1336.3 1142.07 0c106.61,0 183.87,20.29 231.35,61.29 47.91,40.58 71.65,106.18 71.65,197.25l0 298.69c0,90.64 -23.74,156.24 -71.65,197.25 -47.48,41 -124.74,61.29 -231.35,61.29l-836.48 0 0 520.53 -305.59 0z"/>
   <path id="_9_86" class="fil17" d="M57117.69 6061.29l586.14 0 -288.76 -543.84 -297.38 543.84zm-598.23 533.48l756.63 -1336.3 299.98 0 766.55 1336.3 -349.18 0 -160.56 -292.64 -847.7 0 -155.82 292.64 -309.9 0z"/>
   <path id="_10_87" class="fil17" d="M59848.54 5496.73l-839.07 0 0 846.84 839.07 0 0 -287.46 310.77 64.74 0 157.97c0,122.15 -22.88,205.46 -69.06,249.48 -45.75,44.46 -132.94,66.47 -261.99,66.47l-798.5 0c-129.92,0 -217.54,-22.01 -262.86,-66.47 -45.32,-44.02 -68.19,-127.33 -68.19,-249.48l0 -704.83c0,-120.85 22.87,-204.16 68.19,-248.61 45.32,-44.46 132.94,-66.91 262.86,-66.91l798.5 0c129.05,0 216.24,22.45 261.99,66.91 46.18,44.45 69.06,127.76 69.06,248.61l0 126.9 -310.77 49.63 0 -253.79z"/>
   <polygon id="_11_88" class="fil17" points="60801.12,6594.77 60801.12,5258.47 61114.48,5258.47 61114.48,5816.13 61855.57,5258.47 62305.75,5258.47 61420.5,5888.21 62414.52,6594.77 61915.13,6594.77 61114.48,6006.9 61114.48,6594.77 "/>
   <path id="_12_89" class="fil17" d="M63106.84 6061.29l586.14 0 -288.76 -543.84 -297.38 543.84zm-598.23 533.48l756.63 -1336.3 299.98 0 766.55 1336.3 -349.18 0 -160.56 -292.64 -847.7 0 -155.82 292.64 -309.9 0z"/>
   <path id="_13_90" class="fil17" d="M65969.77 5496.73l-971.15 0 0 846.84 971.15 0 0 -297.82 -507.59 0 0 -227.9 810.58 0 0 460.97c0,122.15 -22.87,205.46 -68.62,249.48 -45.32,44.46 -133.37,66.47 -263.29,66.47l-921.94 0c-129.92,0 -217.54,-22.01 -262.86,-66.47 -45.32,-44.02 -68.19,-127.33 -68.19,-249.48l0 -704.4c0,-121.28 22.87,-204.16 68.19,-249.04 45.32,-44.46 132.94,-66.91 262.86,-66.91l921.94 0c128.19,0 215.81,22.02 262.42,65.61 46.19,44.03 69.49,123.01 69.49,237.39l0 30.65 -302.99 54.81 0 -150.2z"/>
   <polygon id="_14_91" class="fil17" points="66930.55,6594.77 66930.55,5258.47 67241.32,5258.47 67241.32,6594.77 "/>
   <path id="_15_92" class="fil17" d="M67921.98 6594.77l0 -1336.3 212.36 0 940.93 787.71c31.94,25.9 60,50.5 84.6,73.81 24.6,23.31 46.61,47.04 66.9,71.65 -4.75,-75.1 -8.2,-128.19 -9.93,-159.27 -1.72,-31.51 -2.59,-55.25 -2.59,-72.08l0 -701.82 279.69 0 0 1336.3 -212.35 0 -981.51 -825.69c-23.31,-21.15 -44.02,-39.71 -61.72,-56.97 -17.7,-16.84 -34.1,-34.1 -49.2,-51.8 3.88,41.44 7.33,80.28 9.49,116.97 2.16,36.69 3.02,68.63 3.02,95.39l0 722.1 -279.69 0z"/>
   <path id="_16_93" class="fil17" d="M71428.9 5496.73l-971.15 0 0 846.84 971.15 0 0 -297.82 -507.59 0 0 -227.9 810.58 0 0 460.97c0,122.15 -22.87,205.46 -68.62,249.48 -45.32,44.46 -133.37,66.47 -263.29,66.47l-921.94 0c-129.92,0 -217.54,-22.01 -262.86,-66.47 -45.32,-44.02 -68.19,-127.33 -68.19,-249.48l0 -704.4c0,-121.28 22.87,-204.16 68.19,-249.04 45.32,-44.46 132.94,-66.91 262.86,-66.91l921.94 0c128.19,0 215.81,22.02 262.42,65.61 46.19,44.03 69.49,123.01 69.49,237.39l0 30.65 -302.99 54.81 0 -150.2z"/>
  </g>
 </g>
</svg>
